<?xml version="1.0" encoding="utf-8"?>
<!-- Generator: Adobe Illustrator 16.0.3, SVG Export Plug-In . SVG Version: 6.00 Build 0)  -->
<!DOCTYPE svg PUBLIC "-//W3C//DTD SVG 1.1//EN" "http://www.w3.org/Graphics/SVG/1.1/DTD/svg11.dtd">
<svg version="1.1" id="_x37_" xmlns="http://www.w3.org/2000/svg" xmlns:xlink="http://www.w3.org/1999/xlink" x="0px" y="0px"
	 width="82.456px" height="50.219px" viewBox="0 0 82.456 50.219" enable-background="new 0 0 82.456 50.219" xml:space="preserve">
<g>
	<path fill="#FFFFFF" d="M28.515,26.971c0,0,0.272,0.046,0.651,0.182c0.378,0.136,0.515,0.288,1.045,0.605
		c0.53,0.318,0.666,0.394,0.772,0.818c0.106,0.423,0.182,0.983,0.167,1.181c-0.015,0.196-0.378,0.954-0.242,1.347
		c-0.288,0.47-0.455,0.985-0.803,1.242c-0.348,0.258-1.393,1.196-2.544,0.878c-1.15-0.317-1.589-0.439-2.089-1.574
		c-0.53-0.984-0.47-1.045-0.56-1.591c-0.091-0.544-0.288-0.803,0-1.392c0.257-0.683,0.696-1.106,1.06-1.258
		c0.363-0.151,0.711-0.363,0.802-0.288C27.258,27.03,28.05,26.852,28.515,26.971z"/>
	<path fill="#D51920" d="M28.272,27.667c0,0,0.364,0.182,0.515,0.182c0.151,0,0.349-0.242,0.56,0
		c0.212,0.242,0.621,0.395,0.833,0.696c0.197,0.454,0.288,1.207,0.137,1.565c-0.152,0.372-0.394,0.842-0.379,0.964
		c-0.136,0.439-0.303,0.363-0.378,0.696c-0.136,0.333-0.944,0.741-1.419,0.757c-0.474,0.016-1.064-0.182-1.231-0.408
		c-0.167-0.229-0.651-0.501-0.53-0.621c0.121-0.121,0.234-0.151-0.02-0.258s-0.571-0.515-0.616-1.241
		c-0.046-0.728,0.302-1.545,0.605-1.802C26.652,27.939,27.455,27.44,28.272,27.667z"/>
</g>
<g>
	<path fill="#FFFFFF" d="M54.576,26.971c0,0,0.272,0.046,0.652,0.182c0.378,0.136,0.514,0.288,1.044,0.605
		c0.53,0.318,0.666,0.394,0.772,0.818c0.105,0.423,0.182,0.983,0.166,1.181c-0.015,0.196-0.378,0.954-0.242,1.347
		c-0.288,0.47-0.454,0.985-0.803,1.242c-0.349,0.258-1.393,1.196-2.544,0.878c-1.149-0.317-1.589-0.439-2.089-1.574
		c-0.53-0.984-0.47-1.045-0.561-1.591c-0.091-0.544-0.288-0.803,0-1.392c0.258-0.683,0.697-1.106,1.061-1.258
		c0.362-0.151,0.711-0.363,0.802-0.288C53.32,27.03,54.111,26.852,54.576,26.971z"/>
	<path fill="#D51920" d="M54.335,27.667c0,0,0.362,0.182,0.514,0.182s0.349-0.242,0.561,0s0.621,0.395,0.833,0.696
		c0.197,0.454,0.287,1.207,0.136,1.565c-0.151,0.372-0.394,0.842-0.378,0.964c-0.137,0.439-0.303,0.363-0.379,0.696
		c-0.136,0.333-0.944,0.741-1.419,0.757c-0.474,0.016-1.064-0.182-1.23-0.408c-0.167-0.229-0.651-0.501-0.53-0.621
		c0.12-0.121,0.234-0.151-0.02-0.258c-0.253-0.106-0.571-0.515-0.616-1.241c-0.046-0.728,0.302-1.545,0.605-1.802
		C52.713,27.939,53.518,27.44,54.335,27.667z"/>
</g>
</svg>
