<?xml version="1.0" encoding="utf-8"?>
<!-- Generator: Adobe Illustrator 16.0.3, SVG Export Plug-In . SVG Version: 6.00 Build 0)  -->
<!DOCTYPE svg PUBLIC "-//W3C//DTD SVG 1.1//EN" "http://www.w3.org/Graphics/SVG/1.1/DTD/svg11.dtd">
<svg version="1.1" id="_x32_" xmlns="http://www.w3.org/2000/svg" xmlns:xlink="http://www.w3.org/1999/xlink" x="0px" y="0px"
	 width="82.456px" height="50.219px" viewBox="0 0 82.456 50.219" enable-background="new 0 0 82.456 50.219" xml:space="preserve">
<g>
	<path fill="#414042" d="M7.274,4.086c0,0,1.214-0.15,2.084,0.21c0.569,0.285,0.63,0.48,0.779,0.555
		c0.465,0.27,0.854,0.45,1.05,0.899c0.15,0.525,0.225,1.245,0.165,1.68c-0.18,0.584-0.269,1.124-0.239,1.334
		c-0.24,0.359-0.735,1.109-1.005,1.379c-0.27,0.27-1.085,0.975-2.079,0.885c-0.995-0.09-1.745-0.3-2.194-0.765
		C5.384,9.799,4.8,9.004,4.68,8.36C4.56,7.715,4.635,7.7,4.545,7.445c-0.09-0.255-0.255-0.57,0-1.185
		C4.65,5.766,5.01,5.121,5.4,4.866S6.437,4.113,7.274,4.086z"/>
	<path fill="#FFFFFF" d="M7.977,6.759c0,0,0.064,0.01,0.152,0.042C8.218,6.833,8.25,6.869,8.375,6.943
		c0.124,0.075,0.156,0.092,0.181,0.192c0.024,0.1,0.042,0.231,0.039,0.277C8.591,7.458,8.506,7.636,8.538,7.729
		C8.47,7.839,8.431,7.96,8.35,8.02C8.268,8.081,8.023,8.301,7.752,8.226c-0.27-0.074-0.373-0.103-0.49-0.37
		c-0.125-0.231-0.11-0.245-0.131-0.373c-0.021-0.128-0.068-0.188,0-0.327c0.06-0.16,0.163-0.259,0.249-0.295
		c0.085-0.035,0.167-0.085,0.188-0.067C7.682,6.772,7.868,6.73,7.977,6.759z"/>
</g>
<g>
	<path fill="#414042" d="M73.561,4.086c0,0,1.215-0.15,2.084,0.21c0.57,0.285,0.63,0.48,0.78,0.555
		c0.464,0.27,0.854,0.45,1.05,0.899c0.15,0.525,0.225,1.245,0.164,1.68c-0.179,0.584-0.27,1.124-0.239,1.334
		c-0.239,0.359-0.735,1.109-1.005,1.379s-1.086,0.975-2.079,0.885c-0.995-0.09-1.745-0.3-2.194-0.765
		c-0.45-0.465-1.034-1.26-1.154-1.904c-0.12-0.645-0.045-0.66-0.135-0.915c-0.091-0.255-0.256-0.57,0-1.185
		c0.104-0.495,0.465-1.14,0.854-1.395C72.077,4.611,72.724,4.113,73.561,4.086z"/>
	<path fill="#FFFFFF" d="M74.263,6.759c0,0,0.063,0.01,0.153,0.042c0.089,0.032,0.121,0.067,0.245,0.142s0.156,0.092,0.181,0.192
		c0.025,0.1,0.043,0.231,0.039,0.277c-0.004,0.046-0.089,0.224-0.057,0.316c-0.067,0.11-0.106,0.231-0.188,0.292
		c-0.082,0.061-0.328,0.281-0.598,0.206s-0.373-0.103-0.49-0.37c-0.125-0.231-0.11-0.245-0.132-0.374
		c-0.021-0.128-0.067-0.188,0-0.327c0.061-0.16,0.164-0.26,0.249-0.295c0.085-0.036,0.167-0.085,0.188-0.067
		C73.968,6.772,74.153,6.73,74.263,6.759z"/>
</g>
</svg>
