<?xml version="1.0" encoding="utf-8"?>
<!-- Generator: Adobe Illustrator 16.0.3, SVG Export Plug-In . SVG Version: 6.00 Build 0)  -->
<!DOCTYPE svg PUBLIC "-//W3C//DTD SVG 1.1//EN" "http://www.w3.org/Graphics/SVG/1.1/DTD/svg11.dtd">
<svg version="1.1" id="_x38_" xmlns="http://www.w3.org/2000/svg" xmlns:xlink="http://www.w3.org/1999/xlink" x="0px" y="0px"
	 width="82.456px" height="50.219px" viewBox="0 0 82.456 50.219" enable-background="new 0 0 82.456 50.219" xml:space="preserve">
<g>
	<path fill="#414042" d="M14.083,2.39c0,0,0.739-0.091,1.268,0.128c0.347,0.174,0.383,0.292,0.475,0.338
		c0.283,0.164,0.52,0.272,0.638,0.547c0.092,0.32,0.137,0.758,0.1,1.021c-0.109,0.357-0.164,0.685-0.146,0.813
		c-0.145,0.218-0.446,0.674-0.61,0.838c-0.164,0.166-0.66,0.594-1.265,0.539s-1.062-0.182-1.335-0.466
		c-0.273-0.283-0.63-0.765-0.702-1.158c-0.073-0.393-0.027-0.401-0.083-0.557c-0.055-0.154-0.155-0.347,0-0.721
		c0.064-0.3,0.283-0.693,0.52-0.849C13.18,2.709,13.573,2.406,14.083,2.39z"/>
	<g>
		<g>
			<g>
				<path fill="#414042" d="M67.51,2.39c0,0,0.739-0.091,1.269,0.128c0.347,0.174,0.383,0.292,0.474,0.338
					c0.284,0.164,0.521,0.272,0.64,0.547c0.091,0.32,0.137,0.758,0.099,1.021c-0.108,0.357-0.163,0.685-0.146,0.813
					c-0.145,0.218-0.446,0.674-0.61,0.838c-0.164,0.166-0.66,0.594-1.266,0.539c-0.604-0.055-1.062-0.182-1.335-0.466
					c-0.273-0.283-0.629-0.765-0.702-1.158c-0.073-0.393-0.027-0.401-0.082-0.557c-0.054-0.154-0.156-0.347,0-0.721
					c0.064-0.3,0.282-0.693,0.52-0.849C66.605,2.709,67,2.406,67.51,2.39z"/>
			</g>
		</g>
	</g>
</g>
</svg>
