<?xml version="1.0" encoding="utf-8"?>
<!-- Generator: Adobe Illustrator 16.0.3, SVG Export Plug-In . SVG Version: 6.00 Build 0)  -->
<!DOCTYPE svg PUBLIC "-//W3C//DTD SVG 1.1//EN" "http://www.w3.org/Graphics/SVG/1.1/DTD/svg11.dtd">
<svg version="1.1" id="_x35_" xmlns="http://www.w3.org/2000/svg" xmlns:xlink="http://www.w3.org/1999/xlink" x="0px" y="0px"
	 width="82.456px" height="50.219px" viewBox="0 0 82.456 50.219" enable-background="new 0 0 82.456 50.219" xml:space="preserve">
<g>
	<path fill-rule="evenodd" clip-rule="evenodd" fill="#F5FAF4" d="M26.872,21.828c0,0-6.192,0.718-7.718-1.077
		c0.718-0.629,1.346-0.718,0.538-1.436c-0.808-0.719-2.154-1.257-2.154-1.257s0.628-1.436,1.974-1.256
		c1.437-1.167,2.692-2.692,6.104-1.077c2.333,1.526,5.923,3.231,7,4.667c-2.424-0.896-4.937-0.538-6.104,0
		C25.346,20.931,26.872,21.828,26.872,21.828z"/>
	<path fill-rule="evenodd" clip-rule="evenodd" fill="#F5FAF4" d="M55.831,20.392c-1.167-0.538-3.68-0.896-6.104,0
		c1.077-1.436,4.667-3.141,7-4.667c3.411-1.615,4.667-0.09,6.104,1.077c1.346-0.18,1.974,1.256,1.974,1.256
		s-1.346,0.538-2.153,1.257c-0.808,0.718-0.18,0.807,0.538,1.436c-1.525,1.795-7.718,1.077-7.718,1.077S56.998,20.931,55.831,20.392
		z"/>
</g>
</svg>
