<?xml version="1.0" encoding="utf-8"?>
<!-- Generator: Adobe Illustrator 16.0.3, SVG Export Plug-In . SVG Version: 6.00 Build 0)  -->
<!DOCTYPE svg PUBLIC "-//W3C//DTD SVG 1.1//EN" "http://www.w3.org/Graphics/SVG/1.1/DTD/svg11.dtd">
<svg version="1.1" id="_x33_" xmlns="http://www.w3.org/2000/svg" xmlns:xlink="http://www.w3.org/1999/xlink" x="0px" y="0px"
	 width="82.456px" height="50.219px" viewBox="0 0 82.456 50.219" enable-background="new 0 0 82.456 50.219" xml:space="preserve">
<g>
	<g>
		<path fill="#FFFFFF" d="M14.264,31.099c0,0,2.229-1.942,6.247-0.331c1.368,0.75,0.993,1.037,1.722,1.126
			c0.441,0.463,1.501,2.251,1.324,3.598c-0.199,1.501-0.31,1.965-0.31,2.03c0,0.066-0.485,1.192-1.147,2.075
			c-0.662,0.884-2.428,2.671-5.783,1.877c-1.766-0.685-3.51-2.031-4.017-3.974C11.835,35.05,11.681,32.82,14.264,31.099z"/>
		<path fill="#414042" d="M16.692,30.855c0,0,1.788-0.221,3.068,0.31c0.839,0.419,0.927,0.707,1.148,0.817
			c0.685,0.396,1.258,0.661,1.545,1.323c0.22,0.772,0.331,1.833,0.243,2.473c-0.265,0.861-0.398,1.655-0.354,1.965
			c-0.353,0.529-1.082,1.633-1.479,2.03c-0.397,0.397-1.597,1.435-3.061,1.303c-1.464-0.133-2.567-0.441-3.23-1.126
			c-0.662-0.684-1.523-1.854-1.699-2.803c-0.177-0.949-0.066-0.972-0.199-1.348c-0.132-0.374-0.375-0.839,0-1.743
			c0.155-0.729,0.684-1.678,1.258-2.054C14.506,31.629,15.458,30.895,16.692,30.855z"/>
		<path fill="#FFFFFF" d="M18.347,31.298c0,0,0.397,0.066,0.95,0.265c0.551,0.198,0.75,0.42,1.523,0.883
			c0.772,0.464,0.971,0.574,1.125,1.192c0.154,0.617,0.265,1.435,0.243,1.722c-0.022,0.286-0.552,1.391-0.353,1.964
			c-0.42,0.685-0.663,1.436-1.17,1.811c-0.508,0.375-2.031,1.743-3.708,1.28c-1.677-0.464-2.317-0.641-3.046-2.296
			c-0.772-1.435-0.684-1.522-0.816-2.318c-0.132-0.794-0.419-1.17,0-2.029c0.375-0.994,1.016-1.612,1.545-1.833
			c0.529-0.221,1.037-0.53,1.169-0.42C16.516,31.385,17.669,31.124,18.347,31.298z"/>
		<path fill="#F47D20" d="M17.994,32.313c0,0,0.53,0.264,0.75,0.264c0.221,0,0.508-0.353,0.816,0
			c0.31,0.354,0.905,0.575,1.214,1.016c0.287,0.662,0.419,1.76,0.199,2.282c-0.221,0.543-0.574,1.228-0.552,1.404
			c-0.199,0.641-0.441,0.53-0.552,1.016c-0.199,0.485-1.377,1.081-2.068,1.104s-1.552-0.265-1.795-0.596
			c-0.243-0.332-0.949-0.729-0.772-0.905c0.176-0.177,0.341-0.221-0.028-0.376c-0.369-0.154-0.833-0.75-0.898-1.81
			c-0.067-1.06,0.441-2.252,0.883-2.626C15.632,32.71,16.803,31.982,17.994,32.313z"/>
	</g>
	<g>
		<path fill="#FFFFFF" d="M61.003,31.099c0,0,2.229-1.942,6.246-0.331c1.369,0.75,0.994,1.037,1.723,1.126
			c0.44,0.463,1.5,2.251,1.324,3.598c-0.199,1.501-0.311,1.965-0.311,2.03c0,0.066-0.484,1.192-1.146,2.075
			c-0.662,0.884-2.428,2.671-5.783,1.877c-1.767-0.685-3.51-2.031-4.018-3.974C58.574,35.05,58.419,32.82,61.003,31.099z"/>
		<path fill="#414042" d="M63.431,30.855c0,0,1.788-0.221,3.068,0.31c0.838,0.419,0.927,0.707,1.147,0.817
			c0.685,0.396,1.259,0.661,1.546,1.323c0.22,0.772,0.33,1.833,0.242,2.473c-0.266,0.861-0.398,1.655-0.354,1.965
			c-0.353,0.529-1.082,1.633-1.479,2.03c-0.397,0.397-1.598,1.435-3.062,1.303c-1.464-0.133-2.567-0.441-3.229-1.126
			c-0.662-0.684-1.523-1.854-1.699-2.803c-0.178-0.949-0.066-0.972-0.199-1.348c-0.133-0.374-0.375-0.839,0-1.743
			c0.154-0.729,0.684-1.678,1.258-2.054C61.245,31.629,62.196,30.895,63.431,30.855z"/>
		<path fill="#FFFFFF" d="M65.086,31.298c0,0,0.397,0.066,0.95,0.265c0.551,0.198,0.75,0.42,1.522,0.883
			c0.772,0.464,0.971,0.574,1.126,1.192c0.154,0.617,0.265,1.435,0.242,1.722c-0.021,0.286-0.552,1.391-0.354,1.964
			c-0.42,0.685-0.662,1.436-1.17,1.811s-2.03,1.743-3.708,1.28c-1.677-0.464-2.317-0.641-3.046-2.296
			c-0.772-1.435-0.685-1.522-0.816-2.318c-0.133-0.794-0.42-1.17,0-2.029c0.375-0.994,1.016-1.612,1.545-1.833s1.037-0.53,1.17-0.42
			C63.255,31.385,64.408,31.124,65.086,31.298z"/>
		<path fill="#F47D20" d="M64.733,32.313c0,0,0.529,0.264,0.75,0.264s0.508-0.353,0.816,0c0.31,0.354,0.905,0.575,1.215,1.016
			c0.287,0.662,0.419,1.76,0.198,2.282c-0.221,0.543-0.574,1.228-0.552,1.404c-0.199,0.641-0.441,0.53-0.552,1.016
			c-0.198,0.485-1.377,1.081-2.068,1.104s-1.552-0.265-1.795-0.596c-0.243-0.332-0.949-0.729-0.772-0.905
			c0.176-0.177,0.342-0.221-0.028-0.376c-0.369-0.154-0.833-0.75-0.898-1.81c-0.067-1.06,0.44-2.252,0.883-2.626
			C62.37,32.71,63.542,31.982,64.733,32.313z"/>
	</g>
</g>
</svg>
