<?xml version="1.0" encoding="utf-8"?>
<!-- Generator: Adobe Illustrator 16.0.3, SVG Export Plug-In . SVG Version: 6.00 Build 0)  -->
<!DOCTYPE svg PUBLIC "-//W3C//DTD SVG 1.1//EN" "http://www.w3.org/Graphics/SVG/1.1/DTD/svg11.dtd">
<svg version="1.1" id="BG" xmlns="http://www.w3.org/2000/svg" xmlns:xlink="http://www.w3.org/1999/xlink" x="0px" y="0px"
	 width="82.456px" height="50.219px" viewBox="0 0 82.456 50.219" enable-background="new 0 0 82.456 50.219" xml:space="preserve">
<path fill="#D5A86F" d="M41.267,39.723c0.798,0.062,1.045-1.537,1.045-1.537s0-4.424,0.43-7.558
	c0.492,6.82,0.922,6.267,2.949,10.568c2.028,4.302,4.979,5.838,6.454,7.62c1.474,1.783,3.502,1.169,4.484,1.107
	c0.983-0.062,1.659-1.598,1.659-1.598s0.677,0.615,1.845,0.675c0.675-0.122,2.888-2.456,3.81-3.196c0.921-0.735,1.659,0,2.151,0.187
	c0.491,0.184,0.921-0.431,1.474-1.66c0.615-0.921,3.381-0.368,4.363,0.185c3.195,2.273,3.748,2.212,4.056,1.598
	c0.307-0.615-0.062-0.982-1.864-2.785s-2.622-2.458-2.458-3.933c0.82-1.476,0.983-4.589,0.983-4.589s0,0,0.492-1.639
	c-3.605-6.555-9.668-8.357-9.668-8.357c0.327-0.041,9.688,0.163,12.023-0.389c2.335-0.554,3.011-3.135,3.687-4.425
	c0.677-1.29,0.245-3.195,0.308-3.933c0.062-0.737,2.931-0.307,2.931-0.307s0.325-0.737-0.964-1.106
	c-1.291-0.369-0.861-2.09-0.861-2.09c1.167-0.369,1.167-1.536,1.167-1.536s-0.921-0.492-1.044-1.167
	c-0.123-0.676,2.027-1.045,1.66-1.905c-0.369-0.86-1.783-0.554-1.843-1.291c-0.062-0.736,1.227-0.43,1.227-1.291
	c0-0.86-0.553-0.86-1.352-1.352c-0.798-0.492,0.48-0.74,0.431-1.291c-0.079-0.885-1.188-0.831-1.188-0.831s-0.68-0.487-0.9-0.645
	C77.3,0.212,75.249-0.282,70.64,0.578C66.03,1.438,60.194,2.975,52.205,8.997c-7.988,6.023-8.604,10.877-8.604,10.877
	s0.062-1.352-0.86-1.967c0.922-1.168,6.022-11.982,6.084-13.641c-0.553,2.949-6.392,13.396-6.392,13.396s-1.245-0.061-1.92,0h1.506
	c-0.675-0.061-1.92,0-1.92,0S34.261,7.215,33.708,4.266c0.062,1.659,5.162,12.473,6.083,13.641c-0.922,0.615-0.86,1.967-0.86,1.967
	s-0.616-4.854-8.604-10.877c-7.989-6.022-13.825-7.558-18.435-8.419c-4.61-0.86-6.661-0.365-8.112,0.676
	c-0.221,0.158-0.9,0.645-0.9,0.645S1.771,1.844,1.691,2.729C1.642,3.279,2.921,3.527,2.123,4.02
	C1.324,4.511,0.771,4.511,0.771,5.371c0,0.86,1.29,0.554,1.228,1.291c-0.06,0.737-1.474,0.431-1.844,1.291
	c-0.367,0.86,1.784,1.229,1.661,1.905c-0.124,0.676-1.044,1.167-1.044,1.167s0,1.167,1.167,1.536c0,0,0.43,1.721-0.861,2.09
	c-1.29,0.369-0.964,1.106-0.964,1.106s2.869-0.43,2.931,0.307c0.062,0.738-0.37,2.643,0.307,3.933
	c0.675,1.291,1.352,3.871,3.687,4.425c2.335,0.552,11.696,0.348,12.024,0.389c0,0-6.062,1.803-9.668,8.357
	c0.492,1.639,0.492,1.639,0.492,1.639s0.164,3.113,0.983,4.589c0.165,1.475-0.656,2.13-2.458,3.933
	c-1.803,1.803-2.171,2.17-1.864,2.785c0.308,0.614,0.86,0.676,4.055-1.598c0.983-0.553,3.749-1.105,4.364-0.185
	c0.553,1.229,0.982,1.844,1.474,1.66c0.492-0.187,1.231-0.922,2.152-0.187c0.922,0.74,3.134,3.074,3.81,3.196
	c1.167-0.06,1.845-0.675,1.845-0.675s0.675,1.536,1.659,1.598c0.982,0.062,3.011,0.676,4.485-1.107
	c1.476-1.782,4.425-3.318,6.454-7.62c2.027-4.302,2.457-3.748,2.949-10.568c0.43,3.134,0.43,7.558,0.43,7.558
	S40.468,39.784,41.267,39.723z"/>
</svg>
