<?xml version="1.0" encoding="utf-8"?>
<!-- Generator: Adobe Illustrator 16.0.3, SVG Export Plug-In . SVG Version: 6.00 Build 0)  -->
<!DOCTYPE svg PUBLIC "-//W3C//DTD SVG 1.1//EN" "http://www.w3.org/Graphics/SVG/1.1/DTD/svg11.dtd">
<svg version="1.1" id="_x34_" xmlns="http://www.w3.org/2000/svg" xmlns:xlink="http://www.w3.org/1999/xlink" x="0px" y="0px"
	 width="82.456px" height="50.219px" viewBox="0 0 82.456 50.219" enable-background="new 0 0 82.456 50.219" xml:space="preserve">
<g>
	<path fill="#D6A86F" d="M24.812,40.181c0,0,0.524-0.064,0.898,0.091c0.246,0.123,0.271,0.207,0.336,0.239
		c0.2,0.116,0.368,0.193,0.452,0.388c0.065,0.227,0.097,0.537,0.071,0.724c-0.077,0.253-0.116,0.485-0.104,0.576
		c-0.103,0.154-0.316,0.478-0.433,0.594c-0.116,0.117-0.468,0.421-0.896,0.382s-0.752-0.129-0.946-0.33
		c-0.194-0.2-0.446-0.542-0.498-0.82c-0.052-0.278-0.02-0.284-0.059-0.395c-0.039-0.109-0.11-0.246,0-0.511
		c0.045-0.213,0.201-0.491,0.369-0.602C24.171,40.407,24.45,40.192,24.812,40.181z"/>
	<g>
		<path fill="#D6A86F" d="M57,40.181c0,0,0.523-0.064,0.898,0.091c0.246,0.123,0.271,0.207,0.336,0.239
			c0.201,0.116,0.369,0.193,0.453,0.388c0.064,0.227,0.097,0.537,0.07,0.724c-0.077,0.253-0.116,0.485-0.104,0.576
			c-0.103,0.154-0.316,0.478-0.433,0.594c-0.116,0.117-0.468,0.421-0.896,0.382s-0.752-0.129-0.946-0.33
			c-0.193-0.2-0.445-0.542-0.497-0.82s-0.02-0.284-0.059-0.395c-0.038-0.109-0.11-0.246,0-0.511c0.046-0.213,0.2-0.491,0.368-0.602
			C56.359,40.407,56.639,40.192,57,40.181z"/>
	</g>
</g>
</svg>
