<?xml version="1.0" encoding="utf-8"?>
<!-- Generator: Adobe Illustrator 16.0.3, SVG Export Plug-In . SVG Version: 6.00 Build 0)  -->
<!DOCTYPE svg PUBLIC "-//W3C//DTD SVG 1.1//EN" "http://www.w3.org/Graphics/SVG/1.1/DTD/svg11.dtd">
<svg version="1.1" id="_x36_" xmlns="http://www.w3.org/2000/svg" xmlns:xlink="http://www.w3.org/1999/xlink" x="0px" y="0px"
	 width="82.456px" height="50.219px" viewBox="0 0 82.456 50.219" enable-background="new 0 0 82.456 50.219" xml:space="preserve">
<g>
	<path fill="#FFFFFF" d="M20.272,11.274c0,0-0.969,2.019,0.808,2.181c1.534,0,1.938-0.243,1.938-1.09
		c0.162-1.09,0.969-1.661,0-2.264c-0.97-0.603-2.504-0.603-2.181,0.851C20.272,11.274,20.272,11.274,20.272,11.274z"/>
	<path fill="#FFFFFF" d="M62.072,11.274c0,0,0.969,2.019-0.809,2.181c-1.533,0-1.938-0.243-1.938-1.09
		c-0.162-1.09-0.97-1.661,0-2.264c0.969-0.603,2.504-0.603,2.18,0.851C62.072,11.274,62.072,11.274,62.072,11.274z"/>
</g>
</svg>
