<?xml version="1.0" encoding="utf-8"?>
<!-- Generator: Adobe Illustrator 16.0.3, SVG Export Plug-In . SVG Version: 6.00 Build 0)  -->
<!DOCTYPE svg PUBLIC "-//W3C//DTD SVG 1.1//EN" "http://www.w3.org/Graphics/SVG/1.1/DTD/svg11.dtd">
<svg version="1.1" xmlns="http://www.w3.org/2000/svg" xmlns:xlink="http://www.w3.org/1999/xlink" x="0px" y="0px" width="296px"
	 height="196px" viewBox="0 0 296 196" enable-background="new 0 0 296 196" xml:space="preserve">
<g id="_x34_-color">
	<g>
		<path fill="#3953A4" d="M57.44,22.376c-14.211-2.651-20.534-1.126-25.01,2.083c-0.68,0.488-2.776,1.989-2.776,1.989
			s-3.42-0.169-3.666,2.561c-0.152,1.697,3.791,2.461,1.331,3.979c-2.464,1.516-4.169,1.516-4.169,4.167
			c0,2.653,3.977,1.708,3.785,3.979c-0.185,2.273-4.545,1.33-5.685,3.98c-1.132,2.651,5.5,3.788,5.121,5.873
			c-0.382,2.083-3.221,3.599-3.221,3.599s0,3.6,3.6,4.736c0,0,1.324,5.305-2.654,6.443c-3.978,1.138-2.973,3.409-2.973,3.409
			s8.846-1.326,9.036,0.946c0.19,2.276-1.139,8.15,0.947,12.125c2.083,3.979,4.167,11.935,11.366,13.645
			c7.198,1.702,36.06,1.072,37.07,1.198c0,0-18.691,5.559-29.808,25.768c1.517,5.053,1.517,5.053,1.517,5.053
			s0.504,9.598,3.032,14.146c0.508,4.546-2.021,6.566-7.578,12.125c-5.558,5.558-6.693,6.689-5.748,8.585
			c0.951,1.895,2.653,2.085,12.503-4.924c3.031-1.705,11.558-3.409,13.454-0.569c1.705,3.79,3.029,5.684,4.543,5.117
			c1.518-0.574,3.795-2.841,6.635-0.574c1.475,1.184,4.016,3.683,6.416,5.874V30.486C74.059,25.905,65.181,23.821,57.44,22.376z"/>
		<polygon points="148,74.966 148,74.966 148,74.966 		"/>
		<path d="M148,75.046v-0.081l0,0c-0.833,0.001-1.665,0.022-2.322,0.081H148z"/>
		<path fill="#69BD45" d="M145.678,75.046c0.658-0.058,1.49-0.08,2.322-0.081c-1.801-0.004-3.599,0.081-3.599,0.081
			s-18-32.207-19.704-41.298c0.189,5.114,15.913,38.455,18.755,42.056c-2.842,1.896-2.65,6.063-2.65,6.063
			s-1.899-14.964-26.527-33.535c-11.213-8.453-21.038-14.018-29.769-17.847v137.202c2.225,2.032,4.328,3.799,5.329,3.979
			c3.599-0.183,5.688-2.079,5.688-2.079s2.082,4.734,5.114,4.925c3.028,0.189,9.282,2.083,13.827-3.414
			c4.549-5.494,13.641-10.23,19.896-23.493c6.251-13.263,7.576-11.555,9.093-32.583c1.325,9.661,1.325,23.302,1.325,23.302
			s0.761,4.928,3.223,4.739V75.046H145.678z"/>
		<path d="M150.321,75.046c-0.658-0.058-1.49-0.08-2.321-0.081v0.081H150.321z"/>
		<path fill="#F6EC13" d="M155.199,81.868c0,0,0.189-4.167-2.653-6.063c2.843-3.601,18.568-36.941,18.759-42.056
			c-1.706,9.091-19.706,41.298-19.706,41.298s-1.797-0.084-3.598-0.081l0,0c0.831,0.001,1.663,0.022,2.321,0.081H148v68.017
			c2.461,0.188,3.221-4.739,3.221-4.739s0-13.641,1.324-23.302c1.519,21.028,2.843,19.32,9.094,32.583
			c6.253,13.263,15.349,17.999,19.897,23.493c4.544,5.497,10.797,3.604,13.825,3.414c3.032-0.19,5.117-4.925,5.117-4.925
			s2.085,1.896,5.687,2.079c1.002-0.181,3.108-1.95,5.332-3.982v-137.2c-8.731,3.829-18.559,9.395-29.773,17.848
			C157.096,66.903,155.199,81.868,155.199,81.868z"/>
		<path fill="#ED1F24" d="M217.91,161.813c2.84-2.267,5.116,0,6.633,0.574c1.516,0.566,2.84-1.327,4.544-5.117
			c1.896-2.84,10.423-1.136,13.452,0.569c9.851,7.009,11.556,6.818,12.504,4.924c0.946-1.896-0.189-3.027-5.748-8.585
			c-5.559-5.559-8.085-7.579-7.577-12.125c2.528-4.549,3.031-14.146,3.031-14.146s0,0,1.518-5.053
			c-11.115-20.209-29.807-25.768-29.807-25.768c1.009-0.125,29.869,0.504,37.068-1.198c7.199-1.71,9.283-9.665,11.366-13.645
			c2.086-3.975,0.755-9.849,0.948-12.125c0.189-2.272,9.035-0.946,9.035-0.946s1.002-2.271-2.973-3.409
			c-3.979-1.138-2.654-6.443-2.654-6.443c3.598-1.137,3.598-4.736,3.598-4.736s-2.839-1.515-3.22-3.599
			c-0.378-2.085,6.251-3.222,5.119-5.873c-1.138-2.65-5.497-1.707-5.681-3.98c-0.192-2.271,3.781-1.326,3.781-3.979
			c0-2.651-1.703-2.651-4.167-4.167c-2.46-1.518,1.481-2.282,1.328-3.979c-0.244-2.73-3.664-2.561-3.664-2.561
			s-2.097-1.5-2.776-1.989c-4.478-3.209-10.8-4.734-25.01-2.083c-7.741,1.445-16.618,3.528-27.062,8.108v137.2
			C213.897,165.493,216.436,162.997,217.91,161.813z"/>
	</g>
</g>
<g id="_x33_-color" display="none">
	<g display="inline">
		<path fill="#3953A4" d="M80.253,52.295c-10.019-1.869-14.476-0.794-17.631,1.469c-0.479,0.344-1.957,1.402-1.957,1.402
			s-2.411-0.119-2.584,1.805c-0.107,1.196,2.672,1.735,0.938,2.805c-1.737,1.069-2.939,1.069-2.939,2.938
			c0,1.87,2.804,1.205,2.668,2.805c-0.13,1.603-3.204,0.938-4.007,2.806c-0.798,1.869,3.877,2.67,3.609,4.14
			c-0.269,1.469-2.27,2.537-2.27,2.537s0,2.538,2.538,3.339c0,0,0.934,3.74-1.871,4.542c-2.804,0.802-2.095,2.404-2.095,2.404
			s6.236-0.935,6.37,0.667c0.134,1.604-0.803,5.746,0.667,8.547c1.468,2.806,2.938,8.414,8.013,9.619
			c5.075,1.199,25.421,0.756,26.133,0.845c0,0-13.177,3.918-21.014,18.165c1.07,3.562,1.07,3.562,1.07,3.562
			s0.355,6.766,2.138,9.973c0.357,3.205-1.425,4.63-5.343,8.548c-3.918,3.918-4.718,4.716-4.052,6.053
			c0.67,1.336,1.87,1.47,8.814-3.472c2.136-1.201,8.148-2.403,9.484-0.401c1.201,2.672,2.135,4.007,3.203,3.608
			c1.07-0.405,2.675-2.004,4.677-0.405c2.004,1.608,6.812,6.682,8.28,6.946c2.538-0.129,4.01-1.467,4.01-1.467
			s1.467,3.339,3.605,3.473c0.877,0.056,2.147,0.297,3.551,0.314V66.285C99.947,56.729,89.066,53.94,80.253,52.295z"/>
		<path d="M145.731,89.427c-0.464-0.042-1.051-0.058-1.637-0.06c-0.587,0.002-1.173,0.017-1.637,0.06H145.731z"/>
		<path fill="#69BD45" d="M149.17,94.234c0,0,0.134-2.938-1.87-4.274c2.004-2.539,13.09-26.042,13.224-29.648
			c-1.202,6.409-13.892,29.115-13.892,29.115s-1.267-0.062-2.537-0.06c0.586,0.002,1.173,0.017,1.637,0.06h-3.274
			c0.464-0.042,1.05-0.058,1.637-0.06c-1.27-0.002-2.537,0.06-2.537,0.06s-12.689-22.707-13.891-29.115
			c0.134,3.606,11.218,27.109,13.222,29.648c-2.003,1.337-1.869,4.274-1.869,4.274s-1.338-10.55-18.7-23.641
			c-2.089-1.575-4.107-3.001-6.064-4.308v93.574c2.012,0.021,4.31-0.438,6.197-2.721c3.207-3.874,9.617-7.213,14.026-16.562
			c4.406-9.35,5.34-8.146,6.41-22.97c0.934,6.812,0.934,16.427,0.934,16.427s0.536,3.475,2.272,3.341
			c1.735,0.134,2.271-3.341,2.271-3.341s0-9.615,0.934-16.427c1.07,14.824,2.004,13.62,6.41,22.97
			c4.408,9.35,10.82,12.688,14.027,16.562c1.887,2.283,4.188,2.744,6.2,2.721V66.282c-1.959,1.308-3.978,2.735-6.068,4.311
			C150.507,83.684,149.17,94.234,149.17,94.234z"/>
		<path fill="#ED1F24" d="M177.483,159.545c2.138-0.134,3.606-3.473,3.606-3.473s1.471,1.338,4.01,1.467
			c1.467-0.265,6.275-5.338,8.279-6.946c2.002-1.599,3.606,0,4.676,0.405c1.068,0.398,2.002-0.937,3.203-3.608
			c1.337-2.002,7.348-0.8,9.483,0.401c6.944,4.941,8.146,4.808,8.814,3.472c0.667-1.337-0.134-2.135-4.052-6.053
			s-5.699-5.343-5.342-8.548c1.782-3.207,2.137-9.973,2.137-9.973s0,0,1.07-3.562c-7.837-14.247-21.013-18.165-21.013-18.165
			c0.711-0.089,21.057,0.354,26.132-0.845c5.075-1.205,6.544-6.813,8.013-9.619c1.471-2.802,0.532-6.943,0.668-8.547
			c0.134-1.602,6.37-0.667,6.37-0.667s0.706-1.602-2.096-2.404c-2.806-0.802-1.871-4.542-1.871-4.542
			c2.536-0.801,2.536-3.339,2.536-3.339s-2.002-1.068-2.27-2.537c-0.267-1.47,4.406-2.271,3.608-4.14
			c-0.802-1.869-3.875-1.204-4.005-2.806c-0.136-1.6,2.666-0.935,2.666-2.805c0-1.869-1.201-1.869-2.938-2.938
			c-1.734-1.07,1.044-1.609,0.936-2.805c-0.172-1.924-2.583-1.805-2.583-1.805s-1.478-1.058-1.957-1.402
			c-3.156-2.263-7.613-3.338-17.631-1.469c-8.812,1.646-19.69,4.434-33.998,13.987v93.578
			C175.34,159.842,176.607,159.601,177.483,159.545z"/>
	</g>
</g>
<g id="_x35_-color" display="none">
	<g display="inline">
		<path fill="#3953A4" d="M80.253,52.295c-10.019-1.869-14.476-0.794-17.631,1.469c-0.479,0.344-1.957,1.402-1.957,1.402
			s-2.411-0.119-2.584,1.805c-0.107,1.196,2.672,1.735,0.938,2.805c-1.737,1.069-2.939,1.069-2.939,2.938
			c0,1.87,2.804,1.205,2.668,2.805c-0.13,1.603-3.204,0.938-4.007,2.806c-0.798,1.869,3.877,2.67,3.609,4.14
			c-0.269,1.469-2.27,2.537-2.27,2.537s0,2.538,2.538,3.339c0,0,0.934,3.74-1.871,4.542c-2.804,0.802-2.095,2.404-2.095,2.404
			s6.236-0.935,6.37,0.667c0.134,1.604-0.803,5.746,0.667,8.547c1.468,2.806,2.938,8.414,8.013,9.619
			c3.472,0.819,14.09,0.873,20.68,0.852V54.701C86.711,53.595,83.354,52.873,80.253,52.295z"/>
		<path fill="#3953A4" d="M74.82,123.128c1.07,3.562,1.07,3.562,1.07,3.562s0.355,6.766,2.138,9.973
			c0.357,3.205-1.425,4.63-5.343,8.548c-3.918,3.918-4.718,4.716-4.052,6.053c0.67,1.336,1.87,1.47,8.814-3.472
			c2.136-1.201,8.148-2.403,9.484-0.401c1.201,2.672,2.135,4.007,3.203,3.608c0.078-0.03,0.165-0.074,0.247-0.117v-43.442
			C85.846,109.979,79.42,114.765,74.82,123.128z"/>
		<path fill="#6FCCDD" d="M120.32,70.593c-11.99-9.039-21.748-13.425-29.939-15.892v50.269c3.042-0.011,5.228-0.034,5.453-0.007
			c0,0-2.263,0.688-5.453,2.476v43.442c1.063-0.514,2.574-1.77,4.43-0.288c2.004,1.608,6.812,6.682,8.28,6.946
			c2.538-0.129,4.01-1.467,4.01-1.467s1.467,3.339,3.605,3.473c2.135,0.134,6.543,1.469,9.748-2.406
			c1.429-1.729,3.498-3.352,5.739-5.446V75.447C124.472,73.88,122.528,72.258,120.32,70.593z"/>
		<path fill="#69BD45" d="M149.17,94.234c0,0,0.134-2.938-1.87-4.274c2.004-2.539,13.09-26.042,13.224-29.648
			c-1.202,6.409-13.892,29.114-13.892,29.114s-1.267-0.06-2.537-0.057c0.586,0.001,1.173,0.016,1.637,0.057h-3.274
			c0.464-0.041,1.05-0.056,1.637-0.057c-1.27-0.003-2.537,0.057-2.537,0.057s-12.689-22.705-13.891-29.114
			c0.134,3.606,11.218,27.109,13.222,29.648c-2.003,1.337-1.869,4.274-1.869,4.274s-1.025-8.038-12.828-18.787v76.246
			c2.787-2.603,5.843-5.935,8.287-11.116c4.406-9.35,5.34-8.146,6.41-22.97c0.934,6.812,0.934,16.427,0.934,16.427
			s0.536,3.475,2.272,3.341c1.735,0.134,2.271-3.341,2.271-3.341s0-9.615,0.934-16.427c1.07,14.824,2.004,13.62,6.41,22.97
			c2.445,5.186,5.504,8.518,8.292,11.122V75.441C150.192,86.193,149.17,94.234,149.17,94.234z"/>
		<path d="M145.731,89.425c-0.464-0.041-1.051-0.056-1.637-0.057c-0.587,0.001-1.173,0.016-1.637,0.057H145.731z"/>
		<path fill="#F6EC13" d="M162.002,75.441v76.257c2.242,2.091,4.307,3.715,5.735,5.44c3.203,3.875,7.611,2.54,9.746,2.406
			c2.138-0.134,3.606-3.473,3.606-3.473s1.471,1.338,4.01,1.467c1.467-0.265,6.275-5.338,8.279-6.946
			c1.857-1.484,3.368-0.224,4.432,0.29v-43.444c-3.189-1.788-5.454-2.476-5.454-2.476c0.225-0.027,2.413-0.004,5.454,0.007V54.699
			c-8.19,2.468-17.949,6.854-29.941,15.894C165.664,72.256,163.722,73.877,162.002,75.441z"/>
		<path fill="#ED1F24" d="M218.488,104.118c5.075-1.205,6.544-6.813,8.013-9.619c1.471-2.802,0.532-6.943,0.668-8.547
			c0.134-1.602,6.37-0.667,6.37-0.667s0.706-1.602-2.096-2.404c-2.806-0.802-1.871-4.542-1.871-4.542
			c2.536-0.801,2.536-3.339,2.536-3.339s-2.002-1.068-2.27-2.537c-0.267-1.47,4.406-2.271,3.608-4.14
			c-0.802-1.869-3.875-1.204-4.005-2.806c-0.136-1.6,2.666-0.935,2.666-2.805c0-1.869-1.201-1.869-2.938-2.938
			c-1.734-1.07,1.044-1.609,0.936-2.805c-0.172-1.924-2.583-1.805-2.583-1.805s-1.478-1.058-1.957-1.402
			c-3.156-2.263-7.613-3.338-17.631-1.469c-3.1,0.578-6.455,1.3-10.125,2.404v50.271
			C204.401,104.991,215.016,104.938,218.488,104.118z"/>
		<path fill="#ED1F24" d="M198.055,150.998c1.068,0.398,2.002-0.937,3.203-3.608c1.337-2.002,7.348-0.8,9.483,0.401
			c6.944,4.941,8.146,4.808,8.814,3.472c0.667-1.337-0.134-2.135-4.052-6.053s-5.699-5.343-5.342-8.548
			c1.782-3.207,2.137-9.973,2.137-9.973s0,0,1.07-3.562c-4.6-8.363-11.022-13.147-15.559-15.689v43.444
			C197.894,150.924,197.979,150.968,198.055,150.998z"/>
	</g>
</g>
</svg>
