<?xml version="1.0" encoding="utf-8"?>
<!-- Generator: Adobe Illustrator 16.0.3, SVG Export Plug-In . SVG Version: 6.00 Build 0)  -->
<!DOCTYPE svg PUBLIC "-//W3C//DTD SVG 1.1//EN" "http://www.w3.org/Graphics/SVG/1.1/DTD/svg11.dtd">
<svg version="1.1" id="_x33_-color" xmlns="http://www.w3.org/2000/svg" xmlns:xlink="http://www.w3.org/1999/xlink" x="0px"
	 y="0px" width="254.863px" height="154.493px" viewBox="20.568 20.753 254.863 154.493"
	 enable-background="new 20.568 20.753 254.863 154.493" xml:space="preserve">
<g>
	<path fill="#3953A4" d="M57.532,22.464c-14.198-2.649-20.513-1.125-24.984,2.081c-0.68,0.487-2.773,1.986-2.773,1.986
		s-3.417-0.168-3.662,2.559c-0.152,1.694,3.787,2.458,1.33,3.974c-2.462,1.515-4.166,1.515-4.166,4.163
		c0,2.65,3.974,1.707,3.781,3.975c-0.185,2.271-4.54,1.328-5.679,3.976c-1.13,2.648,5.494,3.784,5.115,5.868
		c-0.38,2.081-3.217,3.595-3.217,3.595s0,3.596,3.596,4.731c0,0,1.323,5.3-2.651,6.436c-3.973,1.137-2.969,3.407-2.969,3.407
		s8.836-1.325,9.026,0.944c0.19,2.273-1.138,8.142,0.946,12.112c2.08,3.976,4.164,11.923,11.354,13.63
		c7.191,1.699,36.023,1.071,37.033,1.198c0,0-18.672,5.551-29.778,25.741c1.516,5.047,1.516,5.047,1.516,5.047
		s0.504,9.588,3.029,14.133c0.506,4.541-2.02,6.561-7.571,12.111c-5.552,5.553-6.686,6.684-5.742,8.578
		c0.949,1.893,2.65,2.082,12.49-4.92c3.027-1.702,11.546-3.405,13.44-0.568c1.702,3.785,3.026,5.678,4.539,5.112
		c1.515-0.573,3.791-2.839,6.627-0.573c2.839,2.278,9.654,9.469,11.733,9.844c3.596-0.184,5.682-2.08,5.682-2.08
		s2.079,4.731,5.108,4.922c1.244,0.08,3.042,0.422,5.032,0.445V42.289C85.44,28.748,70.021,24.795,57.532,22.464z"/>
	<path d="M150.318,75.082c-0.656-0.06-1.488-0.082-2.318-0.084c-0.832,0.003-1.663,0.024-2.32,0.084H150.318z"/>
	<path fill="#69BD45" d="M155.191,81.894c0,0,0.188-4.163-2.649-6.057c2.839-3.597,18.55-36.903,18.739-42.013
		c-1.704,9.082-19.688,41.258-19.688,41.258S149.8,74.995,148,74.998c0.831,0.003,1.662,0.024,2.318,0.084h-4.638
		c0.657-0.06,1.488-0.082,2.32-0.084c-1.8-0.003-3.595,0.084-3.595,0.084s-17.982-32.177-19.684-41.258
		c0.189,5.11,15.897,38.416,18.736,42.013c-2.839,1.895-2.648,6.057-2.648,6.057s-1.896-14.95-26.5-33.501
		c-2.961-2.232-5.82-4.253-8.593-6.104v132.602c2.852,0.03,6.107-0.621,8.781-3.854c4.545-5.49,13.627-10.222,19.876-23.472
		c6.244-13.248,7.567-11.543,9.083-32.549c1.323,9.651,1.323,23.277,1.323,23.277s0.76,4.924,3.22,4.732
		c2.459,0.19,3.218-4.732,3.218-4.732s0-13.626,1.324-23.277c1.516,21.006,2.839,19.301,9.084,32.549
		c6.246,13.25,15.332,17.98,19.878,23.472c2.673,3.233,5.933,3.888,8.785,3.854V42.284c-2.774,1.853-5.638,3.875-8.601,6.109
		C157.086,66.944,155.191,81.894,155.191,81.894z"/>
	<path fill="#ED1F24" d="M195.312,174.443c3.03-0.189,5.11-4.922,5.11-4.922s2.085,1.896,5.685,2.08
		c2.078-0.375,8.892-7.564,11.73-9.844c2.838-2.266,5.11,0,6.626,0.573c1.515,0.565,2.837-1.327,4.54-5.112
		c1.895-2.837,10.411-1.134,13.438,0.568c9.842,7.002,11.543,6.812,12.49,4.92c0.946-1.895-0.188-3.025-5.74-8.578
		c-5.553-5.552-8.076-7.57-7.569-12.111c2.524-4.545,3.026-14.133,3.026-14.133s0,0,1.518-5.047
		c-11.105-20.188-29.775-25.741-29.775-25.741c1.008-0.126,29.84,0.501,37.03-1.198c7.19-1.707,9.272-9.654,11.354-13.63
		c2.084-3.97,0.755-9.839,0.945-12.112c0.189-2.27,9.027-0.944,9.027-0.944s1-2.27-2.971-3.407c-3.977-1.136-2.65-6.436-2.65-6.436
		c3.594-1.135,3.594-4.731,3.594-4.731s-2.837-1.515-3.216-3.595c-0.378-2.084,6.243-3.219,5.113-5.868
		c-1.138-2.648-5.491-1.705-5.677-3.976c-0.191-2.268,3.779-1.325,3.779-3.975c0-2.648-1.703-2.648-4.164-4.163
		c-2.457-1.516,1.479-2.28,1.326-3.974c-0.244-2.727-3.66-2.559-3.66-2.559s-2.094-1.499-2.773-1.986
		c-4.473-3.207-10.788-4.73-24.983-2.081c-12.487,2.332-27.901,6.283-48.178,19.82v132.608
		C192.275,174.865,194.072,174.523,195.312,174.443z"/>
</g>
</svg>
