<?xml version="1.0" encoding="utf-8"?>
<!-- Generator: Adobe Illustrator 16.0.3, SVG Export Plug-In . SVG Version: 6.00 Build 0)  -->
<!DOCTYPE svg PUBLIC "-//W3C//DTD SVG 1.1//EN" "http://www.w3.org/Graphics/SVG/1.1/DTD/svg11.dtd">
<svg version="1.1" id="_x34_-color" xmlns="http://www.w3.org/2000/svg" xmlns:xlink="http://www.w3.org/1999/xlink" x="0px"
	 y="0px" width="296px" height="196px" viewBox="0 0 296 196" enable-background="new 0 0 296 196" xml:space="preserve">
<g>
	<path fill="#3953A4" d="M57.44,22.376c-14.211-2.651-20.534-1.126-25.01,2.083c-0.68,0.488-2.776,1.989-2.776,1.989
		s-3.42-0.169-3.666,2.561c-0.152,1.697,3.791,2.461,1.331,3.979c-2.464,1.516-4.169,1.516-4.169,4.167
		c0,2.653,3.977,1.708,3.785,3.979c-0.185,2.273-4.545,1.33-5.685,3.98c-1.132,2.651,5.5,3.788,5.121,5.873
		c-0.382,2.083-3.221,3.599-3.221,3.599s0,3.6,3.6,4.736c0,0,1.324,5.305-2.654,6.443c-3.978,1.138-2.973,3.409-2.973,3.409
		s8.846-1.326,9.036,0.946c0.19,2.276-1.139,8.15,0.947,12.125c2.083,3.979,4.167,11.935,11.366,13.645
		c7.198,1.702,36.06,1.072,37.07,1.198c0,0-18.691,5.559-29.808,25.768c1.517,5.053,1.517,5.053,1.517,5.053
		s0.504,9.598,3.032,14.146c0.508,4.546-2.021,6.566-7.578,12.125c-5.558,5.558-6.693,6.689-5.748,8.585
		c0.951,1.895,2.653,2.085,12.503-4.924c3.031-1.705,11.558-3.409,13.454-0.569c1.705,3.79,3.029,5.684,4.543,5.117
		c1.518-0.574,3.795-2.841,6.635-0.574c1.475,1.184,4.016,3.683,6.416,5.874V30.486C74.059,25.905,65.181,23.821,57.44,22.376z"/>
	<polygon points="148,74.966 148,74.966 148,74.966 	"/>
	<path d="M148,75.046v-0.081l0,0c-0.833,0.001-1.665,0.022-2.322,0.081H148z"/>
	<path fill="#69BD45" d="M145.678,75.046c0.658-0.058,1.49-0.08,2.322-0.081c-1.801-0.004-3.599,0.081-3.599,0.081
		s-18-32.207-19.704-41.298c0.189,5.114,15.913,38.455,18.755,42.056c-2.842,1.896-2.65,6.063-2.65,6.063
		s-1.899-14.964-26.527-33.535c-11.213-8.453-21.038-14.018-29.769-17.847v137.202c2.225,2.032,4.328,3.799,5.329,3.979
		c3.599-0.183,5.688-2.079,5.688-2.079s2.082,4.734,5.114,4.925c3.028,0.189,9.282,2.083,13.827-3.414
		c4.549-5.494,13.641-10.23,19.896-23.493c6.251-13.263,7.576-11.555,9.093-32.583c1.325,9.661,1.325,23.302,1.325,23.302
		s0.761,4.928,3.223,4.739V75.046H145.678z"/>
	<path d="M150.321,75.046c-0.658-0.058-1.49-0.08-2.321-0.081v0.081H150.321z"/>
	<path fill="#F6EC13" d="M155.199,81.868c0,0,0.189-4.167-2.653-6.063c2.843-3.601,18.568-36.941,18.759-42.056
		c-1.706,9.091-19.706,41.298-19.706,41.298s-1.797-0.084-3.598-0.081l0,0c0.831,0.001,1.663,0.022,2.321,0.081H148v68.017
		c2.461,0.188,3.221-4.739,3.221-4.739s0-13.641,1.324-23.302c1.519,21.028,2.843,19.32,9.094,32.583
		c6.253,13.263,15.349,17.999,19.897,23.493c4.544,5.497,10.797,3.604,13.825,3.414c3.032-0.19,5.117-4.925,5.117-4.925
		s2.085,1.896,5.687,2.079c1.002-0.181,3.108-1.95,5.332-3.982v-137.2c-8.731,3.829-18.559,9.395-29.773,17.848
		C157.096,66.903,155.199,81.868,155.199,81.868z"/>
	<path fill="#ED1F24" d="M217.91,161.813c2.84-2.267,5.116,0,6.633,0.574c1.516,0.566,2.84-1.327,4.544-5.117
		c1.896-2.84,10.423-1.136,13.452,0.569c9.851,7.009,11.556,6.818,12.504,4.924c0.946-1.896-0.189-3.027-5.748-8.585
		c-5.559-5.559-8.085-7.579-7.577-12.125c2.528-4.549,3.031-14.146,3.031-14.146s0,0,1.518-5.053
		c-11.115-20.209-29.807-25.768-29.807-25.768c1.009-0.125,29.869,0.504,37.068-1.198c7.199-1.71,9.283-9.665,11.366-13.645
		c2.086-3.975,0.755-9.849,0.948-12.125c0.189-2.272,9.035-0.946,9.035-0.946s1.002-2.271-2.973-3.409
		c-3.979-1.138-2.654-6.443-2.654-6.443c3.598-1.137,3.598-4.736,3.598-4.736s-2.839-1.515-3.22-3.599
		c-0.378-2.085,6.251-3.222,5.119-5.873c-1.138-2.65-5.497-1.707-5.681-3.98c-0.192-2.271,3.781-1.326,3.781-3.979
		c0-2.651-1.703-2.651-4.167-4.167c-2.46-1.518,1.481-2.282,1.328-3.979c-0.244-2.73-3.664-2.561-3.664-2.561
		s-2.097-1.5-2.776-1.989c-4.478-3.209-10.8-4.734-25.01-2.083c-7.741,1.445-16.618,3.528-27.062,8.108v137.2
		C213.897,165.493,216.436,162.997,217.91,161.813z"/>
</g>
</svg>
