<?xml version="1.0" encoding="utf-8"?>
<!-- Generator: Adobe Illustrator 16.0.3, SVG Export Plug-In . SVG Version: 6.00 Build 0)  -->
<!DOCTYPE svg PUBLIC "-//W3C//DTD SVG 1.1//EN" "http://www.w3.org/Graphics/SVG/1.1/DTD/svg11.dtd">
<svg version="1.1" id="_x33_-color" xmlns="http://www.w3.org/2000/svg" xmlns:xlink="http://www.w3.org/1999/xlink" x="0px"
	 y="0px" width="296px" height="196px" viewBox="0 0 296 196" enable-background="new 0 0 296 196" xml:space="preserve">
<g>
	<path fill="#3953A4" d="M57.532,22.464c-14.198-2.649-20.513-1.125-24.984,2.081c-0.68,0.487-2.773,1.986-2.773,1.986
		s-3.417-0.168-3.662,2.559c-0.152,1.694,3.787,2.458,1.33,3.974c-2.462,1.515-4.166,1.515-4.166,4.163
		c0,2.65,3.974,1.707,3.781,3.975c-0.185,2.271-4.54,1.328-5.679,3.976c-1.13,2.648,5.494,3.784,5.115,5.868
		c-0.38,2.081-3.217,3.595-3.217,3.595s0,3.596,3.596,4.731c0,0,1.323,5.3-2.651,6.436c-3.973,1.137-2.969,3.407-2.969,3.407
		s8.836-1.325,9.026,0.944c0.19,2.273-1.138,8.142,0.946,12.112c2.08,3.976,4.164,11.923,11.354,13.63
		c7.191,1.699,36.023,1.071,37.033,1.198c0,0-18.672,5.552-29.778,25.741c1.516,5.047,1.516,5.047,1.516,5.047
		s0.504,9.587,3.029,14.132c0.506,4.542-2.02,6.561-7.571,12.112c-5.552,5.553-6.686,6.684-5.742,8.578
		c0.949,1.893,2.65,2.082,12.49-4.92c3.027-1.702,11.546-3.405,13.44-0.568c1.702,3.785,3.026,5.678,4.539,5.112
		c1.515-0.573,3.791-2.839,6.627-0.573c2.839,2.278,9.654,9.468,11.733,9.843c3.596-0.183,5.682-2.079,5.682-2.079
		s2.079,4.731,5.108,4.922c1.244,0.079,3.042,0.421,5.032,0.445V42.289C85.44,28.748,70.021,24.795,57.532,22.464z"/>
	<path d="M150.319,75.082c-0.657-0.06-1.489-0.082-2.319-0.084c-0.832,0.003-1.663,0.024-2.32,0.084H150.319z"/>
	<path fill="#69BD45" d="M155.191,81.894c0,0,0.189-4.163-2.649-6.057c2.839-3.597,18.55-36.903,18.739-42.013
		c-1.704,9.082-19.687,41.258-19.687,41.258S149.8,74.995,148,74.998c0.831,0.003,1.662,0.024,2.319,0.084h-4.639
		c0.657-0.06,1.488-0.082,2.32-0.084c-1.8-0.003-3.595,0.084-3.595,0.084s-17.982-32.177-19.684-41.258
		c0.189,5.11,15.897,38.416,18.736,42.013c-2.839,1.895-2.648,6.057-2.648,6.057s-1.896-14.95-26.5-33.501
		c-2.961-2.232-5.82-4.253-8.593-6.104V174.89c2.852,0.031,6.107-0.62,8.781-3.854c4.545-5.49,13.627-10.222,19.876-23.471
		c6.244-13.249,7.567-11.543,9.083-32.55c1.323,9.652,1.323,23.278,1.323,23.278s0.76,4.924,3.22,4.733
		c2.459,0.19,3.218-4.733,3.218-4.733s0-13.626,1.324-23.278c1.516,21.007,2.839,19.301,9.084,32.55
		c6.246,13.249,15.332,17.98,19.878,23.471c2.673,3.234,5.933,3.888,8.785,3.854V42.284c-2.775,1.853-5.637,3.875-8.6,6.109
		C157.086,66.944,155.191,81.894,155.191,81.894z"/>
	<path fill="#ED1F24" d="M195.313,174.444c3.03-0.19,5.11-4.922,5.11-4.922s2.085,1.896,5.684,2.079
		c2.078-0.375,8.892-7.564,11.731-9.843c2.838-2.266,5.11,0,6.626,0.573c1.515,0.565,2.837-1.327,4.54-5.112
		c1.894-2.837,10.411-1.134,13.438,0.568c9.841,7.002,11.543,6.812,12.49,4.92c0.946-1.895-0.189-3.025-5.741-8.578
		c-5.552-5.552-8.076-7.57-7.569-12.112c2.525-4.545,3.027-14.132,3.027-14.132s0,0,1.517-5.047
		c-11.105-20.188-29.775-25.741-29.775-25.741c1.007-0.126,29.839,0.501,37.03-1.198c7.191-1.707,9.273-9.654,11.354-13.63
		c2.084-3.97,0.755-9.839,0.946-12.112c0.189-2.27,9.027-0.944,9.027-0.944s1-2.27-2.971-3.407c-3.976-1.136-2.65-6.436-2.65-6.436
		c3.594-1.135,3.594-4.731,3.594-4.731s-2.837-1.515-3.216-3.595c-0.378-2.084,6.243-3.219,5.113-5.868
		c-1.137-2.648-5.491-1.705-5.676-3.976c-0.192-2.268,3.778-1.325,3.778-3.975c0-2.648-1.703-2.648-4.163-4.163
		c-2.457-1.516,1.479-2.28,1.326-3.974c-0.244-2.727-3.66-2.559-3.66-2.559s-2.094-1.499-2.774-1.986
		c-4.472-3.207-10.788-4.73-24.983-2.081c-12.487,2.332-27.902,6.283-48.178,19.82V174.89
		C192.276,174.865,194.072,174.523,195.313,174.444z"/>
</g>
</svg>
