<?xml version="1.0" encoding="utf-8"?>
<!-- Generator: Adobe Illustrator 16.0.3, SVG Export Plug-In . SVG Version: 6.00 Build 0)  -->
<!DOCTYPE svg PUBLIC "-//W3C//DTD SVG 1.1//EN" "http://www.w3.org/Graphics/SVG/1.1/DTD/svg11.dtd">
<svg version="1.1" id="Layer_1" xmlns="http://www.w3.org/2000/svg" xmlns:xlink="http://www.w3.org/1999/xlink" x="0px" y="0px"
	 width="82.709px" height="50.688px" viewBox="0 0 82.709 50.688" enable-background="new 0 0 82.709 50.688" xml:space="preserve">
<path fill="#D5A86F" d="M41.345,39.974c0.799,0.061,1.045-1.537,1.045-1.537s0-4.424,0.43-7.559
	c0.492,6.82,0.922,6.268,2.949,10.568c2.028,4.303,4.979,5.838,6.454,7.621c1.474,1.783,3.502,1.168,4.484,1.107
	c0.983-0.062,1.659-1.598,1.659-1.598s0.677,0.615,1.845,0.674c0.675-0.121,2.888-2.455,3.81-3.195c0.921-0.736,1.659,0,2.151,0.186
	c0.491,0.184,0.921-0.43,1.474-1.66c0.615-0.92,3.381-0.367,4.363,0.186c3.195,2.273,3.748,2.211,4.056,1.598
	c0.307-0.615-0.062-0.982-1.864-2.785s-2.622-2.459-2.458-3.934c0.82-1.475,0.983-4.588,0.983-4.588s0,0,0.492-1.639
	c-3.605-6.555-9.668-8.357-9.668-8.357c0.327-0.041,9.688,0.162,12.023-0.389c2.335-0.555,3.011-3.135,3.687-4.426
	c0.677-1.29,0.245-3.194,0.308-3.933c0.062-0.737,2.931-0.307,2.931-0.307s0.325-0.737-0.964-1.106
	c-1.291-0.369-0.861-2.09-0.861-2.09c1.167-0.368,1.167-1.536,1.167-1.536s-0.921-0.491-1.044-1.167
	c-0.123-0.677,2.027-1.045,1.66-1.905c-0.369-0.859-1.783-0.554-1.843-1.291c-0.062-0.736,1.227-0.43,1.227-1.29
	s-0.553-0.86-1.352-1.352c-0.798-0.492,0.48-0.74,0.431-1.291c-0.079-0.885-1.188-0.83-1.188-0.83s-0.68-0.487-0.9-0.646
	c-1.452-1.041-3.503-1.535-8.112-0.676c-4.609,0.861-10.445,2.397-18.435,8.419c-7.988,6.023-8.604,10.878-8.604,10.878
	s0.062-1.352-0.86-1.967c0.922-1.168,6.022-11.982,6.084-13.642c-0.553,2.949-6.392,13.396-6.392,13.396s-1.245-0.061-1.921,0h1.507
	c-0.675-0.061-1.921,0-1.921,0S34.339,7.465,33.786,4.516c0.062,1.659,5.162,12.474,6.084,13.642
	c-0.922,0.615-0.86,1.967-0.86,1.967s-0.616-4.854-8.604-10.878C22.417,3.225,16.58,1.689,11.971,0.828
	c-4.609-0.859-6.66-0.365-8.112,0.676c-0.221,0.158-0.9,0.646-0.9,0.646S1.849,2.094,1.77,2.979C1.72,3.53,2.999,3.778,2.201,4.27
	c-0.8,0.491-1.353,0.491-1.353,1.352s1.29,0.554,1.228,1.29c-0.06,0.737-1.474,0.432-1.844,1.291
	c-0.367,0.86,1.784,1.229,1.661,1.905c-0.124,0.676-1.045,1.167-1.045,1.167s0,1.168,1.168,1.536c0,0,0.43,1.721-0.861,2.09
	c-1.29,0.369-0.964,1.106-0.964,1.106s2.869-0.431,2.931,0.307c0.062,0.738-0.369,2.643,0.307,3.933
	c0.676,1.291,1.352,3.871,3.688,4.426c2.334,0.551,11.695,0.348,12.023,0.389c0,0-6.062,1.803-9.668,8.357
	c0.492,1.639,0.492,1.639,0.492,1.639s0.163,3.113,0.983,4.588c0.164,1.475-0.656,2.131-2.458,3.934
	c-1.803,1.803-2.172,2.17-1.865,2.785c0.309,0.613,0.861,0.676,4.056-1.598c0.982-0.553,3.749-1.105,4.364-0.186
	c0.552,1.23,0.981,1.844,1.474,1.66c0.491-0.186,1.23-0.922,2.151-0.186c0.922,0.74,3.135,3.074,3.81,3.195
	c1.167-0.059,1.845-0.674,1.845-0.674s0.676,1.535,1.658,1.598c0.982,0.061,3.012,0.676,4.485-1.107
	c1.476-1.783,4.425-3.318,6.454-7.621c2.027-4.301,2.457-3.748,2.949-10.568c0.43,3.135,0.43,7.559,0.43,7.559
	S40.546,40.034,41.345,39.974z"/>
</svg>
