<?xml version="1.0" encoding="utf-8"?>
<!-- Generator: Adobe Illustrator 16.0.3, SVG Export Plug-In . SVG Version: 6.00 Build 0)  -->
<!DOCTYPE svg PUBLIC "-//W3C//DTD SVG 1.1//EN" "http://www.w3.org/Graphics/SVG/1.1/DTD/svg11.dtd">
<svg version="1.1" id="Layer_1" xmlns="http://www.w3.org/2000/svg" xmlns:xlink="http://www.w3.org/1999/xlink" x="0px" y="0px"
	 width="296px" height="196px" viewBox="0 0 296 196" enable-background="new 0 0 296 196" xml:space="preserve">
<g>
	<path fill="#D7D6CB" d="M296,186.033c0,5.481-4.485,9.967-9.967,9.967H9.966C4.485,196,0,191.515,0,186.033V9.966
		C0,4.485,4.485,0,9.966,0h276.067C291.515,0,296,4.485,296,9.966V186.033z"/>
</g>
<g>
	<path fill="#FFFEF4" d="M291.033,181.033c0,5.481-4.485,9.967-9.967,9.967H14.933c-5.481,0-9.966-4.485-9.966-9.967V14.966
		C4.966,9.485,9.451,5,14.933,5h266.134c5.481,0,9.967,4.485,9.967,9.966V181.033z"/>
</g>
</svg>
