<?xml version="1.0" encoding="utf-8"?>
<!-- Generator: Adobe Illustrator 16.0.3, SVG Export Plug-In . SVG Version: 6.00 Build 0)  -->
<!DOCTYPE svg PUBLIC "-//W3C//DTD SVG 1.1//EN" "http://www.w3.org/Graphics/SVG/1.1/DTD/svg11.dtd">
<svg version="1.1" id="Layer_1" xmlns="http://www.w3.org/2000/svg" xmlns:xlink="http://www.w3.org/1999/xlink" x="0px" y="0px"
	 width="234.667px" height="173.333px" viewBox="132.833 162.833 234.667 173.333"
	 enable-background="new 132.833 162.833 234.667 173.333" xml:space="preserve">
<path fill="none" stroke="#414042" stroke-width="2" stroke-miterlimit="10" d="M250.011,287.827c0,0-1.045-1.743-1.744-16.401
	c-9.074,25.129-14.655,24.78-25.127,25.479c-22.686,0.697-29.663-27.223-29.316-32.456c0.352-5.236,13.611-15.356,13.611-15.356
	s-10.468-1.046-16.053-3.14c-5.583-2.096-7.329-19.894-6.632-31.41c0.701-11.518,6.982-14.309,24.431-9.771
	c25.826,6.979,36.295,30.711,36.295,30.711l-4.886-27.92L248,235.83l2.098-1.238c0,0,1.234,0.582,2.093,1.238l7.412-28.268
	l-4.887,27.92c0,0,10.471-23.732,36.294-30.711c17.449-4.537,23.73-1.746,24.431,9.771c0.697,11.517-1.048,29.314-6.632,31.41
	c-5.583,2.094-16.053,3.14-16.053,3.14s13.26,10.12,13.612,15.356c0.345,5.233-6.633,33.153-29.315,32.456
	c-10.473-0.697-16.056-0.35-25.129-25.479c-0.698,14.658-1.744,16.401-1.744,16.401H250.011z"/>
<path fill="none" stroke="#D5A86F" stroke-width="2" stroke-miterlimit="10" d="M250.098,288.68
	c1.987,0.153,2.601-3.826,2.601-3.826s0-11.011,1.07-18.812c1.225,16.978,2.293,15.599,7.34,26.308
	c5.05,10.707,12.394,14.53,16.065,18.967c3.668,4.438,8.718,2.91,11.162,2.757c2.447-0.153,4.13-3.978,4.13-3.978
	s1.686,1.531,4.592,1.68c1.681-0.303,7.188-6.112,9.482-7.955c2.292-1.83,4.13,0,5.355,0.464c1.223,0.457,2.292-1.071,3.668-4.132
	c1.53-2.293,8.415-0.918,10.859,0.459c7.954,5.658,9.33,5.506,10.096,3.977c0.764-1.531-0.152-2.445-4.641-6.934
	c-4.488-4.487-6.525-6.117-6.118-9.787c2.042-3.674,2.447-11.424,2.447-11.424s0,0,1.226-4.078
	c-8.975-16.315-24.064-20.803-24.064-20.803c0.813-0.103,24.116,0.405,29.929-0.969c5.812-1.379,7.494-7.803,9.176-11.015
	c1.686-3.212,0.61-7.952,0.767-9.79c0.152-1.834,7.295-0.764,7.295-0.764s0.81-1.834-2.398-2.753
	c-3.214-0.919-2.145-5.202-2.145-5.202c2.905-0.917,2.905-3.823,2.905-3.823s-2.293-1.224-2.6-2.906
	c-0.307-1.683,5.046-2.601,4.132-4.741c-0.919-2.141-4.438-1.378-4.587-3.213c-0.154-1.834,3.055-1.071,3.055-3.213
	c0-2.141-1.376-2.141-3.364-3.364c-1.986-1.226,1.194-1.843,1.07-3.212c-0.195-2.203-2.957-2.068-2.957-2.068
	s-1.691-1.211-2.241-1.605c-3.614-2.591-8.72-3.822-20.192-1.682c-11.474,2.143-26,5.967-45.887,20.956
	c-19.885,14.993-21.415,27.075-21.415,27.075s0.151-3.363-2.142-4.895c2.293-2.908,14.989-29.826,15.144-33.955
	c-1.376,7.34-15.909,33.344-15.909,33.344s-3.1-0.152-4.781,0h3.75c-1.681-0.152-4.78,0-4.78,0s-14.533-26.004-15.909-33.344
	c0.153,4.129,12.848,31.047,15.143,33.955c-2.294,1.531-2.14,4.895-2.14,4.895s-1.533-12.082-21.417-27.075
	c-19.885-14.989-34.413-18.813-45.887-20.956c-11.475-2.141-16.579-0.909-20.192,1.682c-0.549,0.395-2.241,1.605-2.241,1.605
	s-2.762-0.135-2.959,2.068c-0.123,1.369,3.06,1.986,1.074,3.212c-1.99,1.224-3.367,1.224-3.367,3.364
	c0,2.142,3.211,1.379,3.056,3.213c-0.149,1.835-3.669,1.072-4.589,3.213c-0.914,2.141,4.44,3.059,4.133,4.741
	c-0.307,1.683-2.6,2.906-2.6,2.906s0,2.906,2.906,3.823c0,0,1.069,4.283-2.143,5.202c-3.211,0.919-2.399,2.753-2.399,2.753
	s7.142-1.07,7.295,0.764c0.153,1.838-0.92,6.578,0.764,9.79c1.681,3.212,3.364,9.636,9.176,11.015
	c5.812,1.374,29.114,0.866,29.93,0.969c0,0-15.091,4.486-24.066,20.803c1.225,4.078,1.225,4.078,1.225,4.078
	s0.407,7.75,2.448,11.424c0.41,3.67-1.632,5.301-6.118,9.787c-4.487,4.488-5.404,5.402-4.641,6.934
	c0.767,1.529,2.142,1.684,10.094-3.977c2.446-1.377,9.332-2.752,10.862-0.459c1.376,3.061,2.445,4.589,3.668,4.132
	c1.225-0.464,3.064-2.294,5.356-0.464c2.295,1.843,7.802,7.652,9.482,7.955c2.906-0.147,4.592-1.68,4.592-1.68
	s1.681,3.823,4.129,3.978c2.445,0.153,7.494,1.683,11.164-2.757c3.673-4.437,11.014-8.26,16.064-18.967
	c5.046-10.709,6.116-9.33,7.341-26.308c1.07,7.801,1.07,18.812,1.07,18.812S248.109,288.833,250.098,288.68z"/>
<g>
	<path fill="none" stroke="#662D91" stroke-width="2" stroke-miterlimit="10" d="M249.683,235.843c0,0-10.549-20.308-16.402-27.728
		c7.417,14.061,15.227,28.115,14.058,30.455c-1.561,0.783-2.345,2.739-2.345,2.739s3.12-8.206-32.809-34.757
		c-9.371-7.422-36.483-25.633-58.188-23.518c-13.569,1.807-24.596,9.463-16.401,20.791c7.812,9.754,21.873,19.519,23.046,24.982
		c0.385,5.082,11.718,23.433,26.552,24.216c13.273,0.777,15.621,0.777,15.621,0.777s-21.479,10.938-31.628,33.588
		c-2.733,7.418-3.908,14.447,1.953,19.909c6.477,5.929,16.663,9.585,33.189,8.612c8.549-0.594,21.746-6.604,27.343-19.149
		c5.462-10.932,12.488-32.022,12.488-32.022s0.394,8.977-0.775,16.797c-0.334,6.742,3.452,7.919,6.594,6.824"/>
	<path fill="none" stroke="#662D91" stroke-width="2" stroke-miterlimit="10" d="M250.504,235.826c0,0,10.551-20.312,16.405-27.73
		c-7.416,14.062-15.231,28.121-14.062,30.465c1.567,0.783,2.344,2.738,2.344,2.738s-3.119-8.205,32.814-34.76
		c9.378-7.418,36.486-25.633,58.188-23.516c13.565,1.804,24.593,9.463,16.396,20.783c-7.805,9.756-21.869,19.527-23.039,24.992
		c-0.387,5.072-11.714,23.431-26.557,24.213c-13.274,0.774-15.608,0.774-15.608,0.774s21.467,10.939,31.62,33.586
		c2.73,7.419,3.904,14.454-1.956,19.918c-6.469,5.927-16.659,9.585-33.186,8.615c-8.555-0.598-21.741-6.609-27.34-19.16
		c-5.469-10.934-12.496-32.02-12.496-32.02s-0.391,8.979,0.779,16.793c0.33,6.748-3.457,7.92-6.599,6.825"/>
</g>
<g>
	<g>
		<path fill="none" stroke="#27A6DE" stroke-width="2" stroke-miterlimit="10" d="M251.062,234.1c0,0,2.662-25.404,8.606-33.391
			C253.152,211.358,251.062,234.1,251.062,234.1s0,0,2.457,1.867c-0.816-10.836,7.858-28.164,17.215-37.102
			c16.181-14.549,36.463-19.668,40.144-20.281c-5.938,4.297-4.091,10.038-2.042,17.618c2.042,5.734,10.44,23.353,10.654,31.952
			c0.199,8.608-3.282,20.286-6.152,22.95c-4.096-1.85-13.513-1.439-13.513-1.439l13.105,7.173c0,0,0.61,9.011-0.611,16.386
			c-2.056,17.418-18.034,30.939-27.66,40.356c-8.207,6.851-7.171,11.469-10.239,12.481c-1.85,0.186-1.85-3.051-2.049-8.998
			c-0.617-15.162-8.598-18.229-14.546-21.299c-3.479-2.053-3.479-17.418-3.479-17.418l-4.282,3.69l0,0l-4.222-3.744
			c0,0,0,15.365-3.478,17.405c-5.943,3.076-13.925,6.152-14.542,21.306c-0.209,5.938-0.209,9.187-2.049,8.999
			c-3.073-1.014-2.037-5.633-10.249-12.479c-9.625-9.428-25.604-22.943-27.654-40.355c-1.227-7.38-0.613-16.395-0.613-16.395
			l13.106-7.166c0,0-9.416-0.406-13.519,1.436c-2.864-2.665-6.346-14.34-6.14-22.949c0.204-8.6,8.606-26.217,10.648-31.951
			c2.053-7.581,3.889-13.316-2.042-17.619c3.682,0.619,23.964,5.74,40.147,20.277c9.349,8.932,18.033,26.279,17.207,37.107
			c2.462-1.869,2.462-1.869,2.462-1.869s-2.097-22.74-8.607-33.392c5.944,7.986,8.607,33.392,8.607,33.392"/>
	</g>
</g>
<g>
	<path fill="none" stroke="#B82025" stroke-width="2" stroke-miterlimit="10" d="M253.312,276.244
		c-1.068,2.15-6.451,4.604-7.528-3.688c-0.456-9.524,0-20.744,0-20.744s-4.606,6.299-5.215,15.211
		c-0.623,10.14,1.223,31.811-4.61,33.811c-2.919,0.912-5.225-0.932-5.225,6.443c0,7.378-3.382,10.91-7.984,7.988
		c-4.615-2.912-4.461-1.074-6.46,1.084c-2.458,0.754-5.689,0-5.689-2.771c-2.458-0.612-7.367,0-7.836,5.377
		c0,0-0.609,6.604-1.836,10.137c-1.235,3.536-7.38,7.84-11.219,4.303c-3.229-3.072-3.374-7.213-1.534-9.983
		c1.845-2.767,9.988-9.375,10.449-11.986c1.534-4.297,2.612-8.444-0.921-9.979c-2.769-0.612-7.836-1.234-3.532-9.679
		c-1.236-1.539-6.203-3.684-7.184-5.845c-1.175-2.61,0.153-6.45,1.188-8.45c-0.971-3.838-3.996-2.615-5.065-4.605
		c-0.158-4.455-0.315-5.539,3.067-9.217c1.078-7.066,0.614-8.297,6.604-13.375c5.991-5.069,17.052-11.826,25.038-12.441
		c-12.595-1.692-7.678-0.465-19.195-1.377c-11.531-0.93-17.671-7.536-18.285-12.605c-0.614-5.066-1.231-8.906-3.229-9.834
		c-1.998-0.912,0-4.146,0-4.146l-0.882-3.84l-0.81-6.301c0,0-5.531-14.592-8.752-18.438c-1.692-6.451-2.765-11.145,0-14.332
		c1.998-2.416,7.678-3.946,18.897-1.491c11.22,2.458,34.723,15.36,47.17,31.806c12.438,16.442,15.045,32.877,15.045,32.877
		s0.626-4.76,2.002-5.688c-1.376-8.293-8.905-32.571-11.832-36.713c7.994,16.131,12.804,34.895,12.804,34.895"/>
	<path fill="none" stroke="#B82025" stroke-width="2" stroke-miterlimit="10" d="M246.865,276.251
		c1.074,2.146,6.457,4.604,7.533-3.694c0.457-9.523,0-20.742,0-20.742s4.61,6.304,5.217,15.218
		c0.617,10.132-1.219,31.803,4.613,33.803c2.93,0.912,5.225-0.931,5.225,6.444c0,7.377,3.379,10.908,7.994,7.986
		c4.609-2.912,4.453-1.074,6.447,1.084c2.467,0.762,5.688,0,5.688-2.771c2.46-0.612,7.375,0,7.837,5.377
		c0,0,0.618,6.604,1.847,10.138c1.229,3.543,7.369,7.838,11.213,4.307c3.226-3.077,3.384-7.217,1.538-9.988
		c-1.846-2.766-9.991-9.375-10.448-11.986c-1.537-4.297-2.612-8.443,0.925-9.979c2.759-0.612,7.832-1.234,3.529-9.68
		c1.228-1.539,6.209-3.683,7.184-5.844c1.177-2.611-0.158-6.443-1.188-8.445c0.968-3.842,3.988-2.611,5.07-4.61
		c0.146-4.453,0.308-5.539-3.077-9.218c-1.071-7.065-0.607-8.297-6.604-13.368c-5.994-5.075-17.056-11.825-25.04-12.443
		c12.594-1.696,7.677-0.469,19.203-1.381c11.521-0.93,17.67-7.536,18.274-12.605c0.627-5.066,1.239-8.906,3.237-9.834
		c1.996-0.912,0-4.141,0-4.141l0.88-3.841l0.805-6.306c0,0,5.525-14.592,8.757-18.43c1.688-6.453,2.767-11.152,0-14.332
		c-1.99-2.417-7.68-3.954-18.896-1.499c-11.216,2.458-34.725,15.36-47.165,31.806c-12.446,16.442-15.06,32.887-15.06,32.887
		s-0.612-4.77-1.999-5.697c1.386-8.293,8.915-32.571,11.829-36.713c-7.989,16.131-12.736,35.2-12.736,35.2"/>
</g>
</svg>
