<?xml version="1.0" encoding="utf-8"?>
<!-- Generator: Adobe Illustrator 16.0.3, SVG Export Plug-In . SVG Version: 6.00 Build 0)  -->
<!DOCTYPE svg PUBLIC "-//W3C//DTD SVG 1.1//EN" "http://www.w3.org/Graphics/SVG/1.1/DTD/svg11.dtd">
<svg version="1.1" id="Layer_3" xmlns="http://www.w3.org/2000/svg" xmlns:xlink="http://www.w3.org/1999/xlink" x="0px" y="0px"
	 width="238.375px" height="172.952px" viewBox="-1.917 0.19 238.375 172.952" enable-background="new -1.917 0.19 238.375 172.952"
	 xml:space="preserve">
<g>
	<g>
		<g>
			<path fill="none" stroke="#27A5DD" stroke-width="5.747" stroke-linecap="round" stroke-miterlimit="10" d="M117.333,113.219
				c0,0-3.847-3.97-4.353-2.338c-0.041,4.222,0,14.985-3.479,16.974c-5.942,3.002-13.926,6.001-14.544,20.781
				c-0.208,5.791-0.208,8.957-2.049,8.774c-3.072-0.987-2.036-5.491-10.25-12.168c-9.625-9.196-25.607-22.377-27.659-39.357
				c-1.226-7.199-1.884-13.667-0.613-15.99c1.272-2.323,14.004-5.663,13.47-7.733c-0.533-2.072-3.952-0.027-7.819,0.683
				c-2.782,0.509-7.508,0.073-9.663-2.319c-2.66-2.538-2.746-10.204-2.541-18.601c0.203-8.387,8.608-25.568,10.649-31.162
				c3.786-10.553-3.854-15.841-2.041-17.184c1.812-1.342,23.968,5.599,40.152,19.775c9.352,8.711,16.563,36.194,17.211,36.19
				c0.646-0.002,2.312-1.085,2.462-1.821c0,0-1.724-16.176-8.844-32.415"/>
		</g>
	</g>
	<g>
		<g>
			<path fill="none" stroke="#27A5DD" stroke-width="5.747" stroke-linecap="round" stroke-miterlimit="10" d="M117.333,113.219
				c0,0,3.848-3.97,4.354-2.338c0.041,4.222,0,14.985,3.479,16.974c5.944,3.002,13.926,6.001,14.544,20.781
				c0.208,5.791,0.208,8.957,2.051,8.774c3.072-0.987,2.034-5.491,10.25-12.168c9.624-9.196,25.606-22.377,27.657-39.357
				c1.228-7.199,1.886-13.667,0.615-15.99c-1.272-2.323-14.006-5.663-13.472-7.733c0.533-2.072,3.952-0.027,7.821,0.683
				c2.781,0.509,7.506,0.073,9.661-2.319c2.662-2.538,2.746-10.204,2.541-18.601c-0.203-8.387-8.607-25.568-10.649-31.162
				c-3.784-10.554,3.857-15.841,2.042-17.184c-1.813-1.342-23.969,5.599-40.155,19.775c-9.35,8.711-16.562,36.194-17.209,36.19
				c-0.646-0.002-2.312-1.085-2.463-1.821c0,0,1.725-16.176,8.846-32.415"/>
		</g>
	</g>
	<g>
		<g>
			<path fill="none" stroke="#652D90" stroke-width="5.75" stroke-linecap="round" stroke-miterlimit="10" d="M99.551,35.009
				c10.08,15.557,14.625,23.854,15.925,28.25c0.584,2.117,0.854,4.762-0.901,5.025c-1.755,0.263-0.29-8.451-35.979-34.826
				c-9.309-7.374-36.241-25.464-57.804-23.362C7.314,11.89-3.642,19.495,4.5,30.749c7.761,9.69,21.728,19.391,22.896,24.818
				c0.161,5.798,11.64,23.277,26.376,24.056c7.052,0.659,14.882-0.894,15.517,0.773c0.636,1.668-21.337,10.863-31.419,33.364
				c-2.717,7.368-3.882,14.353,1.94,19.777c6.434,5.892,16.553,9.522,32.969,8.557c8.492-0.591,21.603-6.562,27.161-19.023
				c5.427-10.858,10.17-31.87,12.407-31.812c2.236,0.06,0.767,10.622,0.327,16.952c-0.332,6.699,3.428,7.868,6.549,6.781"/>
		</g>
	</g>
	<g>
		<g>
			<path fill="none" stroke="#652D90" stroke-width="5.75" stroke-linecap="round" stroke-miterlimit="10" d="M135.115,35.009
				c-10.08,15.557-14.625,23.854-15.925,28.25c-0.584,2.117-0.853,4.762,0.902,5.025c1.754,0.263,0.289-8.451,35.979-34.826
				c9.309-7.374,36.239-25.464,57.802-23.362c13.479,1.794,24.435,9.398,16.294,20.652c-7.762,9.69-21.729,19.391-22.896,24.818
				c-0.162,5.798-11.64,23.277-26.377,24.056c-7.052,0.659-14.88-0.894-15.515,0.773c-0.636,1.668,21.336,10.863,31.417,33.364
				c2.717,7.368,3.882,14.353-1.94,19.777c-6.434,5.892-16.553,9.522-32.968,8.557c-8.493-0.591-21.602-6.562-27.162-19.023
				c-5.427-10.858-10.169-31.87-12.405-31.812c-2.238,0.06-0.769,10.622-0.329,16.952c0.334,6.699-3.426,7.868-6.549,6.781"/>
		</g>
	</g>
	<g>
		<g>
			<path fill="none" stroke="#B72025" stroke-width="5.756" stroke-linecap="round" stroke-miterlimit="10" d="M120.557,112.925
				c-1.051,2.107-7.238,3.378-7.399-3.619c-0.448-9.339,2.214-19.912,0-20.341c-2.213-0.428-4.524,6.176-5.124,14.914
				c-0.612,9.946,1.2,31.196-4.531,33.158c-2.864,0.892-5.132-0.914-5.132,6.318c0,7.237-3.321,10.698-7.846,7.833
				c-4.532-2.855-4.383-1.054-6.346,1.062c-1.801,1.99-6.113,0.79-5.592-2.717c-3.131-0.898-7.237,0-7.697,5.271
				c0,0-0.599,6.48-1.804,9.942c-1.212,3.471-7.25,7.69-11.023,4.22c-3.171-3.015-3.315-7.07-1.507-9.789
				c1.813-2.715,9.813-9.196,10.267-11.757c1.505-4.215,2.566-8.281-0.907-9.782c-2.062-0.716-7.699-1.21-3.47-9.492
				c-1.532-0.934-5.879-3.726-7.059-5.731c-1.594-2.71-0.919-4.741,1.541-7.665c-1.303-0.605-3.627-2.336-4.46-3.307
				c-2.912-2.925-1.178-6.964,2.578-8.632c1.06-6.927,0.15-10.375,6.034-15.357c5.885-4.97,24.687-9.776,24.657-12.795
				c-0.029-3.018-7.6,0.14-18.915-0.755c-11.33-0.909-17.364-7.39-17.965-12.361c-0.604-4.97-1.566-8.198-3.175-9.645
				c-5.788-6.26,0.1-8.979,0.136-10.227c0.036-1.249-0.845-2.151-1.799-3.783c-1.773-3.039-7.275-12.98-8.6-18.081
				c-1.663-6.326-2.717-10.93,0-14.057c1.965-2.368,7.544-3.87,18.567-1.461c11.025,2.41,34.117,15.063,46.348,31.189
				c12.22,16.126,12.185,32.141,14.783,32.242c2.596,0.1,2.062-4.005,1.964-5.578c-0.692-11.069-8.747-31.941-11.624-36.002"/>
		</g>
	</g>
	<g>
		<g>
			<path fill="none" stroke="#B72025" stroke-width="5.756" stroke-linecap="round" stroke-miterlimit="10" d="M114.111,112.925
				c1.051,2.107,7.238,3.378,7.399-3.619c0.448-9.339-2.212-19.912,0-20.341c2.214-0.428,4.522,6.176,5.124,14.914
				c0.611,9.946-1.2,31.196,4.531,33.158c2.864,0.892,5.132-0.914,5.132,6.318c0,7.237,3.321,10.698,7.847,7.833
				c4.531-2.855,4.38-1.054,6.343,1.062c1.804,1.99,6.115,0.79,5.592-2.717c3.132-0.898,7.239,0,7.7,5.271
				c0,0,0.598,6.48,1.801,9.942c1.216,3.471,7.253,7.69,11.027,4.22c3.169-3.015,3.313-7.07,1.506-9.789
				c-1.814-2.715-9.812-9.196-10.268-11.757c-1.503-4.215-2.564-8.281,0.906-9.782c2.062-0.716,7.698-1.21,3.471-9.492
				c1.532-0.934,5.881-3.726,7.059-5.731c1.592-2.71,0.921-4.741-1.541-7.665c1.301-0.605,3.627-2.336,4.459-3.307
				c2.914-2.925,1.179-6.964-2.577-8.632c-1.06-6.927-0.15-10.375-6.036-15.357c-5.883-4.97-24.685-9.776-24.655-12.795
				c0.029-3.018,7.598,0.14,18.915-0.755c11.33-0.909,17.362-7.39,17.965-12.361c0.606-4.97,1.565-8.198,3.175-9.645
				c5.786-6.26-0.1-8.979-0.136-10.227c-0.038-1.249,0.845-2.151,1.797-3.783c1.775-3.039,7.277-12.98,8.602-18.081
				c1.663-6.326,2.713-10.93,0-14.057c-1.963-2.368-7.546-3.87-18.566-1.461c-11.024,2.408-34.12,15.064-46.349,31.189
				c-12.221,16.126-12.187,32.141-14.783,32.242c-2.596,0.1-2.062-4.005-1.966-5.578c0.694-11.069,8.749-31.941,11.626-36.002"/>
		</g>
	</g>
</g>
</svg>
