<?xml version="1.0" encoding="utf-8"?>
<!-- Generator: Adobe Illustrator 16.0.3, SVG Export Plug-In . SVG Version: 6.00 Build 0)  -->
<!DOCTYPE svg PUBLIC "-//W3C//DTD SVG 1.1//EN" "http://www.w3.org/Graphics/SVG/1.1/DTD/svg11.dtd">
<svg version="1.1" xmlns="http://www.w3.org/2000/svg" xmlns:xlink="http://www.w3.org/1999/xlink" x="0px" y="0px"
	 width="234.667px" height="173.333px" viewBox="0 0 234.667 173.333" enable-background="new 0 0 234.667 173.333"
	 xml:space="preserve">
<g id="Layer_1" display="none">
	<path display="inline" fill="none" stroke="#414042" stroke-width="2" stroke-miterlimit="10" d="M250.011,287.827
		c0,0-1.045-1.742-1.744-16.4c-9.074,25.129-14.655,24.779-25.127,25.479c-22.686,0.697-29.663-27.223-29.316-32.455
		c0.352-5.236,13.611-15.357,13.611-15.357s-10.469-1.045-16.053-3.139c-5.584-2.097-7.329-19.895-6.633-31.41
		c0.701-11.519,6.982-14.31,24.432-9.771c25.826,6.979,36.295,30.711,36.295,30.711l-4.887-27.92l7.41,28.268l2.099-1.238
		c0,0,1.233,0.582,2.093,1.238l7.412-28.269l-4.887,27.92c0,0,10.471-23.731,36.293-30.711c17.449-4.537,23.73-1.746,24.432,9.771
		c0.697,11.518-1.048,29.314-6.632,31.41c-5.583,2.094-16.054,3.141-16.054,3.141s13.261,10.119,13.613,15.355
		c0.344,5.233-6.634,33.153-29.315,32.456c-10.474-0.696-16.056-0.35-25.13-25.479c-0.697,14.658-1.743,16.402-1.743,16.402H250.011
		L250.011,287.827z"/>
	<path display="inline" fill="none" stroke="#D5A86F" stroke-width="2" stroke-miterlimit="10" d="M250.098,288.68
		c1.987,0.152,2.601-3.826,2.601-3.826s0-11.012,1.07-18.812c1.225,16.979,2.293,15.6,7.34,26.309
		c5.051,10.707,12.395,14.529,16.064,18.967c3.668,4.438,8.719,2.91,11.162,2.758c2.447-0.154,4.131-3.979,4.131-3.979
		s1.686,1.531,4.592,1.68c1.682-0.303,7.188-6.111,9.482-7.955c2.291-1.83,4.129,0,5.354,0.465c1.224,0.457,2.292-1.072,3.668-4.133
		c1.53-2.293,8.415-0.918,10.858,0.459c7.955,5.658,9.33,5.506,10.097,3.977c0.765-1.53-0.151-2.444-4.642-6.934
		c-4.487-4.486-6.524-6.117-6.117-9.787c2.041-3.674,2.447-11.424,2.447-11.424s0,0,1.226-4.078
		c-8.976-16.314-24.063-20.803-24.063-20.803c0.812-0.104,24.115,0.405,29.928-0.969c5.812-1.379,7.494-7.803,9.177-11.016
		c1.687-3.211,0.61-7.951,0.767-9.789c0.152-1.834,7.295-0.765,7.295-0.765s0.811-1.834-2.397-2.753
		c-3.214-0.919-2.146-5.202-2.146-5.202c2.905-0.917,2.905-3.823,2.905-3.823s-2.293-1.224-2.601-2.906
		c-0.307-1.682,5.047-2.6,4.133-4.74c-0.919-2.141-4.438-1.378-4.588-3.213c-0.153-1.834,3.056-1.071,3.056-3.213
		c0-2.141-1.376-2.141-3.364-3.364c-1.986-1.226,1.194-1.843,1.07-3.212c-0.195-2.203-2.957-2.068-2.957-2.068
		s-1.691-1.211-2.24-1.605c-3.615-2.59-8.721-3.821-20.193-1.682c-11.473,2.144-26,5.967-45.887,20.957
		c-19.885,14.992-21.414,27.074-21.414,27.074s0.15-3.363-2.143-4.895c2.293-2.908,14.988-29.826,15.145-33.955
		c-1.377,7.34-15.91,33.344-15.91,33.344s-3.1-0.152-4.78,0h3.75c-1.681-0.152-4.78,0-4.78,0s-14.533-26.004-15.908-33.344
		c0.152,4.129,12.848,31.047,15.143,33.955c-2.295,1.531-2.141,4.895-2.141,4.895s-1.533-12.082-21.416-27.074
		c-19.886-14.99-34.414-18.813-45.888-20.957c-11.476-2.141-16.579-0.908-20.192,1.683c-0.549,0.396-2.24,1.604-2.24,1.604
		s-2.762-0.135-2.959,2.068c-0.123,1.369,3.06,1.986,1.074,3.212c-1.99,1.224-3.367,1.224-3.367,3.364
		c0,2.142,3.211,1.379,3.056,3.213c-0.149,1.835-3.669,1.072-4.589,3.213c-0.914,2.141,4.439,3.059,4.133,4.74
		c-0.307,1.684-2.6,2.906-2.6,2.906s0,2.906,2.906,3.823c0,0,1.068,4.283-2.144,5.202c-3.211,0.919-2.399,2.753-2.399,2.753
		s7.143-1.069,7.295,0.765c0.153,1.838-0.92,6.578,0.765,9.789c1.681,3.213,3.364,9.637,9.176,11.016
		c5.812,1.374,29.114,0.865,29.931,0.969c0,0-15.092,4.486-24.066,20.803c1.225,4.078,1.225,4.078,1.225,4.078
		s0.407,7.75,2.448,11.424c0.41,3.67-1.632,5.301-6.118,9.787c-4.486,4.488-5.404,5.402-4.641,6.934
		c0.767,1.529,2.142,1.686,10.094-3.977c2.445-1.377,9.332-2.752,10.861-0.459c1.377,3.061,2.445,4.59,3.668,4.133
		c1.226-0.465,3.064-2.295,5.357-0.465c2.295,1.844,7.801,7.652,9.481,7.955c2.905-0.146,4.592-1.68,4.592-1.68
		s1.681,3.822,4.129,3.979c2.445,0.152,7.494,1.682,11.164-2.758c3.673-4.438,11.015-8.26,16.063-18.967
		c5.047-10.709,6.117-9.33,7.342-26.309c1.07,7.801,1.07,18.812,1.07,18.812S248.109,288.833,250.098,288.68z"/>
	<g display="inline">
		<path fill="none" stroke="#662D91" stroke-width="2" stroke-miterlimit="10" d="M249.683,235.842c0,0-10.549-20.307-16.402-27.727
			c7.418,14.061,15.227,28.114,14.059,30.454c-1.562,0.783-2.346,2.739-2.346,2.739s3.12-8.206-32.809-34.758
			c-9.371-7.422-36.482-25.633-58.188-23.518c-13.569,1.807-24.597,9.463-16.401,20.791c7.812,9.754,21.872,19.52,23.046,24.982
			c0.385,5.082,11.718,23.434,26.552,24.216c13.272,0.776,15.621,0.776,15.621,0.776s-21.479,10.938-31.628,33.589
			c-2.732,7.418-3.908,14.446,1.953,19.909c6.477,5.928,16.663,9.584,33.189,8.611c8.549-0.594,21.746-6.604,27.342-19.148
			c5.463-10.932,12.488-32.022,12.488-32.022s0.395,8.978-0.775,16.798c-0.334,6.741,3.453,7.918,6.595,6.823"/>
		<path fill="none" stroke="#662D91" stroke-width="2" stroke-miterlimit="10" d="M250.503,235.827c0,0,10.552-20.312,16.406-27.73
			c-7.416,14.062-15.231,28.121-14.062,30.465c1.566,0.783,2.344,2.738,2.344,2.738s-3.119-8.205,32.814-34.76
			c9.377-7.418,36.486-25.633,58.188-23.517c13.564,1.804,24.594,9.463,16.396,20.783c-7.805,9.756-21.869,19.526-23.039,24.991
			c-0.387,5.072-11.715,23.432-26.557,24.214c-13.275,0.774-15.609,0.774-15.609,0.774s21.468,10.938,31.621,33.586
			c2.729,7.418,3.904,14.453-1.957,19.918c-6.469,5.926-16.658,9.584-33.186,8.615c-8.555-0.6-21.74-6.609-27.34-19.16
			c-5.469-10.935-12.496-32.021-12.496-32.021s-0.391,8.979,0.779,16.793c0.33,6.748-3.457,7.92-6.6,6.825"/>
	</g>
	<g display="inline">
		<g>
			<path fill="none" stroke="#27A6DE" stroke-width="2" stroke-miterlimit="10" d="M251.062,234.1c0,0,2.662-25.404,8.605-33.391
				C253.152,211.358,251.062,234.1,251.062,234.1s0,0,2.457,1.867c-0.816-10.836,7.857-28.164,17.215-37.102
				c16.182-14.55,36.463-19.669,40.145-20.281c-5.938,4.297-4.092,10.037-2.043,17.617c2.043,5.734,10.44,23.354,10.654,31.952
				c0.199,8.608-3.281,20.286-6.152,22.95c-4.096-1.85-13.512-1.439-13.512-1.439l13.104,7.174c0,0,0.61,9.011-0.611,16.386
				c-2.056,17.418-18.034,30.938-27.659,40.356c-8.207,6.85-7.172,11.469-10.24,12.48c-1.85,0.186-1.85-3.051-2.049-8.998
				c-0.617-15.162-8.598-18.229-14.545-21.299c-3.479-2.053-3.479-17.418-3.479-17.418l-4.282,3.689l0,0l-4.223-3.744
				c0,0,0,15.365-3.477,17.405c-5.943,3.076-13.926,6.152-14.543,21.306c-0.209,5.939-0.209,9.188-2.049,9
				c-3.072-1.014-2.037-5.633-10.249-12.479c-9.625-9.43-25.604-22.943-27.653-40.355c-1.228-7.381-0.613-16.396-0.613-16.396
				l13.105-7.166c0,0-9.416-0.405-13.519,1.437c-2.864-2.666-6.347-14.34-6.14-22.949c0.203-8.6,8.605-26.217,10.647-31.951
				c2.053-7.581,3.89-13.316-2.042-17.619c3.682,0.619,23.964,5.74,40.146,20.277c9.35,8.932,18.033,26.279,17.207,37.106
				c2.463-1.868,2.463-1.868,2.463-1.868s-2.098-22.74-8.607-33.393c5.943,7.986,8.607,33.393,8.607,33.393"/>
		</g>
	</g>
	<g display="inline">
		<path fill="none" stroke="#B82025" stroke-width="2" stroke-miterlimit="10" d="M253.312,276.245
			c-1.068,2.149-6.451,4.604-7.527-3.688c-0.457-9.524,0-20.744,0-20.744s-4.606,6.299-5.216,15.211
			c-0.623,10.14,1.224,31.812-4.61,33.812c-2.918,0.912-5.225-0.933-5.225,6.443c0,7.377-3.382,10.91-7.984,7.986
			c-4.615-2.91-4.461-1.072-6.459,1.084c-2.459,0.756-5.689,0-5.689-2.77c-2.458-0.613-7.367,0-7.836,5.377
			c0,0-0.609,6.604-1.836,10.137c-1.235,3.535-7.381,7.84-11.219,4.303c-3.229-3.072-3.375-7.213-1.535-9.982
			c1.846-2.768,9.988-9.375,10.449-11.986c1.535-4.297,2.612-8.444-0.92-9.979c-2.77-0.613-7.836-1.234-3.533-9.68
			c-1.235-1.539-6.202-3.684-7.184-5.846c-1.175-2.609,0.153-6.449,1.188-8.449c-0.971-3.838-3.995-2.615-5.064-4.605
			c-0.158-4.455-0.314-5.539,3.067-9.217c1.077-7.066,0.614-8.297,6.604-13.375c5.99-5.068,17.051-11.826,25.037-12.441
			c-12.595-1.691-7.678-0.465-19.195-1.377c-11.531-0.93-17.67-7.535-18.285-12.604c-0.613-5.065-1.23-8.905-3.229-9.834
			c-1.998-0.912,0-4.146,0-4.146l-0.882-3.84l-0.81-6.302c0,0-5.531-14.592-8.752-18.438c-1.692-6.45-2.766-11.145,0-14.332
			c1.998-2.416,7.678-3.945,18.896-1.49c11.221,2.458,34.723,15.359,47.17,31.806c12.438,16.442,15.045,32.878,15.045,32.878
			s0.626-4.761,2.002-5.689c-1.376-8.293-8.904-32.57-11.832-36.713c7.994,16.132,12.805,34.896,12.805,34.896"/>
		<path fill="none" stroke="#B82025" stroke-width="2" stroke-miterlimit="10" d="M246.865,276.25
			c1.074,2.146,6.457,4.604,7.533-3.693c0.457-9.523,0-20.742,0-20.742s4.609,6.305,5.217,15.219
			c0.617,10.131-1.219,31.803,4.613,33.803c2.93,0.912,5.225-0.932,5.225,6.443c0,7.377,3.379,10.908,7.994,7.986
			c4.609-2.912,4.453-1.074,6.447,1.084c2.467,0.762,5.688,0,5.688-2.771c2.461-0.611,7.375,0,7.838,5.377
			c0,0,0.617,6.604,1.847,10.139c1.229,3.543,7.368,7.838,11.213,4.307c3.226-3.076,3.384-7.217,1.538-9.988
			c-1.846-2.766-9.991-9.375-10.448-11.986c-1.536-4.297-2.612-8.442,0.925-9.979c2.76-0.611,7.832-1.234,3.529-9.68
			c1.229-1.539,6.209-3.684,7.184-5.844c1.178-2.611-0.158-6.443-1.188-8.445c0.968-3.842,3.988-2.611,5.07-4.609
			c0.146-4.453,0.308-5.539-3.077-9.219c-1.071-7.064-0.607-8.297-6.604-13.367c-5.994-5.076-17.056-11.826-25.039-12.443
			c12.594-1.696,7.676-0.469,19.202-1.381c11.521-0.93,17.671-7.537,18.274-12.605c0.627-5.066,1.238-8.906,3.236-9.834
			c1.996-0.912,0-4.141,0-4.141l0.881-3.842l0.805-6.306c0,0,5.525-14.592,8.757-18.43c1.688-6.453,2.767-11.152,0-14.332
			c-1.989-2.417-7.681-3.954-18.896-1.499c-11.217,2.458-34.726,15.359-47.166,31.806c-12.445,16.442-15.06,32.888-15.06,32.888
			s-0.612-4.771-1.999-5.697c1.387-8.293,8.915-32.571,11.829-36.713c-7.989,16.131-12.735,35.199-12.735,35.199"/>
	</g>
	<g id="Layer_2" display="inline">
	</g>
</g>
<g id="Layer_3">
	<g>
		<g>
			<g>
				<path fill="none" stroke="#27A5DD" stroke-width="5.747" stroke-linecap="round" stroke-miterlimit="10" d="M117.333,113.219
					c0,0-3.847-3.97-4.353-2.338c-0.041,4.222,0,14.985-3.479,16.974c-5.942,3.002-13.926,6.001-14.544,20.781
					c-0.208,5.791-0.208,8.957-2.049,8.774c-3.072-0.987-2.036-5.491-10.25-12.168c-9.625-9.196-25.607-22.377-27.659-39.357
					c-1.226-7.199-1.884-13.667-0.613-15.99c1.272-2.323,14.004-5.663,13.47-7.733c-0.533-2.072-3.952-0.027-7.819,0.683
					c-2.782,0.509-7.508,0.073-9.663-2.319c-2.66-2.538-2.746-10.204-2.541-18.601c0.203-8.387,8.608-25.568,10.649-31.162
					c3.786-10.553-3.854-15.841-2.041-17.184c1.812-1.342,23.968,5.599,40.152,19.775c9.352,8.711,16.563,36.194,17.211,36.19
					c0.646-0.002,2.312-1.085,2.462-1.821c0,0-1.724-16.176-8.844-32.415"/>
			</g>
		</g>
		<g>
			<g>
				<path fill="none" stroke="#27A5DD" stroke-width="5.747" stroke-linecap="round" stroke-miterlimit="10" d="M117.333,113.219
					c0,0,3.848-3.97,4.354-2.338c0.041,4.222,0,14.985,3.479,16.974c5.944,3.002,13.926,6.001,14.544,20.781
					c0.208,5.791,0.208,8.957,2.051,8.774c3.072-0.987,2.034-5.491,10.25-12.168c9.624-9.196,25.606-22.377,27.657-39.357
					c1.228-7.199,1.886-13.667,0.615-15.99c-1.272-2.323-14.006-5.663-13.472-7.733c0.533-2.072,3.952-0.027,7.821,0.683
					c2.781,0.509,7.506,0.073,9.661-2.319c2.662-2.538,2.746-10.204,2.541-18.601c-0.203-8.387-8.607-25.568-10.649-31.162
					c-3.784-10.554,3.857-15.841,2.042-17.184c-1.813-1.342-23.969,5.599-40.155,19.775c-9.35,8.711-16.562,36.194-17.209,36.19
					c-0.646-0.002-2.312-1.085-2.463-1.821c0,0,1.725-16.176,8.846-32.415"/>
			</g>
		</g>
		<g>
			<g>
				<path fill="none" stroke="#652D90" stroke-width="5.75" stroke-linecap="round" stroke-miterlimit="10" d="M99.551,35.009
					c10.08,15.557,14.625,23.854,15.925,28.25c0.584,2.117,0.854,4.762-0.901,5.025c-1.755,0.263-0.29-8.451-35.979-34.826
					c-9.309-7.374-36.241-25.464-57.804-23.362C7.314,11.89-3.642,19.495,4.5,30.749c7.761,9.69,21.728,19.391,22.896,24.818
					c0.161,5.798,11.64,23.277,26.376,24.056c7.052,0.659,14.882-0.894,15.517,0.773c0.636,1.668-21.337,10.863-31.419,33.364
					c-2.717,7.368-3.882,14.353,1.94,19.777c6.434,5.892,16.553,9.522,32.969,8.557c8.492-0.591,21.603-6.562,27.161-19.023
					c5.427-10.858,10.17-31.87,12.407-31.812c2.236,0.06,0.767,10.622,0.327,16.952c-0.332,6.699,3.428,7.868,6.549,6.781"/>
			</g>
		</g>
		<g>
			<g>
				<path fill="none" stroke="#652D90" stroke-width="5.75" stroke-linecap="round" stroke-miterlimit="10" d="M135.115,35.009
					c-10.08,15.557-14.625,23.854-15.925,28.25c-0.584,2.117-0.853,4.762,0.902,5.025c1.754,0.263,0.289-8.451,35.979-34.826
					c9.309-7.374,36.239-25.464,57.802-23.362c13.479,1.794,24.435,9.398,16.294,20.652c-7.762,9.69-21.729,19.391-22.896,24.818
					c-0.162,5.798-11.64,23.277-26.377,24.056c-7.052,0.659-14.88-0.894-15.515,0.773c-0.636,1.668,21.336,10.863,31.417,33.364
					c2.717,7.368,3.882,14.353-1.94,19.777c-6.434,5.892-16.553,9.522-32.968,8.557c-8.493-0.591-21.602-6.562-27.162-19.023
					c-5.427-10.858-10.169-31.87-12.405-31.812c-2.238,0.06-0.769,10.622-0.329,16.952c0.334,6.699-3.426,7.868-6.549,6.781"/>
			</g>
		</g>
		<g>
			<g>
				<path fill="none" stroke="#B72025" stroke-width="5.756" stroke-linecap="round" stroke-miterlimit="10" d="M120.557,112.925
					c-1.051,2.107-7.238,3.378-7.399-3.619c-0.448-9.339,2.214-19.912,0-20.341c-2.213-0.428-4.524,6.176-5.124,14.914
					c-0.612,9.946,1.2,31.196-4.531,33.158c-2.864,0.892-5.132-0.914-5.132,6.318c0,7.237-3.321,10.698-7.846,7.833
					c-4.532-2.855-4.383-1.054-6.346,1.062c-1.801,1.99-6.113,0.79-5.592-2.717c-3.131-0.898-7.237,0-7.697,5.271
					c0,0-0.599,6.48-1.804,9.942c-1.212,3.471-7.25,7.69-11.023,4.22c-3.171-3.015-3.315-7.07-1.507-9.789
					c1.813-2.715,9.813-9.196,10.267-11.757c1.505-4.215,2.566-8.281-0.907-9.782c-2.062-0.716-7.699-1.21-3.47-9.492
					c-1.532-0.934-5.879-3.726-7.059-5.731c-1.594-2.71-0.919-4.741,1.541-7.665c-1.303-0.605-3.627-2.336-4.46-3.307
					c-2.912-2.925-1.178-6.964,2.578-8.632c1.06-6.927,0.15-10.375,6.034-15.357c5.885-4.97,24.687-9.776,24.657-12.795
					c-0.029-3.018-7.6,0.14-18.915-0.755c-11.33-0.909-17.364-7.39-17.965-12.361c-0.604-4.97-1.566-8.198-3.175-9.645
					c-5.788-6.26,0.1-8.979,0.136-10.227c0.036-1.249-0.845-2.151-1.799-3.783c-1.773-3.039-7.275-12.98-8.6-18.081
					c-1.663-6.326-2.717-10.93,0-14.057c1.965-2.368,7.544-3.87,18.567-1.461c11.025,2.41,34.117,15.063,46.348,31.189
					c12.22,16.126,12.185,32.141,14.783,32.242c2.596,0.1,2.062-4.005,1.964-5.578c-0.692-11.069-8.747-31.941-11.624-36.002"/>
			</g>
		</g>
		<g>
			<g>
				<path fill="none" stroke="#B72025" stroke-width="5.756" stroke-linecap="round" stroke-miterlimit="10" d="M114.111,112.925
					c1.051,2.107,7.238,3.378,7.399-3.619c0.448-9.339-2.212-19.912,0-20.341c2.214-0.428,4.522,6.176,5.124,14.914
					c0.611,9.946-1.2,31.196,4.531,33.158c2.864,0.892,5.132-0.914,5.132,6.318c0,7.237,3.321,10.698,7.847,7.833
					c4.531-2.855,4.38-1.054,6.343,1.062c1.804,1.99,6.115,0.79,5.592-2.717c3.132-0.898,7.239,0,7.7,5.271
					c0,0,0.598,6.48,1.801,9.942c1.216,3.471,7.253,7.69,11.027,4.22c3.169-3.015,3.313-7.07,1.506-9.789
					c-1.814-2.715-9.812-9.196-10.268-11.757c-1.503-4.215-2.564-8.281,0.906-9.782c2.062-0.716,7.698-1.21,3.471-9.492
					c1.532-0.934,5.881-3.726,7.059-5.731c1.592-2.71,0.921-4.741-1.541-7.665c1.301-0.605,3.627-2.336,4.459-3.307
					c2.914-2.925,1.179-6.964-2.577-8.632c-1.06-6.927-0.15-10.375-6.036-15.357c-5.883-4.97-24.685-9.776-24.655-12.795
					c0.029-3.018,7.598,0.14,18.915-0.755c11.33-0.909,17.362-7.39,17.965-12.361c0.606-4.97,1.565-8.198,3.175-9.645
					c5.786-6.26-0.1-8.979-0.136-10.227c-0.038-1.249,0.845-2.151,1.797-3.783c1.775-3.039,7.277-12.98,8.602-18.081
					c1.663-6.326,2.713-10.93,0-14.057c-1.963-2.368-7.546-3.87-18.566-1.461c-11.024,2.408-34.12,15.064-46.349,31.189
					c-12.221,16.126-12.187,32.141-14.783,32.242c-2.596,0.1-2.062-4.005-1.966-5.578c0.694-11.069,8.749-31.941,11.626-36.002"/>
			</g>
		</g>
	</g>
</g>
</svg>
